<svg xmlns="http://www.w3.org/2000/svg" xmlns:xlink="http://www.w3.org/1999/xlink" width="859" height="706" viewBox="0 0 859 706"><defs><clipPath id="a"><rect width="859" height="706" transform="translate(0 0)" fill="#72f09f"/></clipPath></defs><g transform="translate(859 706) rotate(180)" opacity="0.031" clip-path="url(#a)"><g transform="translate(154 -392.454)"><g transform="translate(0 134.159)"><g transform="translate(89.968 134.128)"><g transform="translate(102.809 0.005)"><path d="M51.408,134.156,141.371,0H89.963L0,134.156Z" transform="translate(6.501 6.238)" fill="#71f09f"/><path d="M57.909,146.631H6.5a6.549,6.549,0,0,1-5.705-3.249,6.02,6.02,0,0,1,.239-6.363L90.995,2.863A6.573,6.573,0,0,1,96.463,0h51.409a6.549,6.549,0,0,1,5.705,3.249,6.02,6.02,0,0,1-.24,6.363L63.378,143.768A6.573,6.573,0,0,1,57.909,146.631Zm-39.5-12.472H54.361l81.6-121.685H100.011Z" transform="translate(0)"/></g><g transform="translate(51.402 0.005)"><path d="M51.408,134.156,141.371,0H89.963L0,134.156Z" transform="translate(6.5 6.238)" fill="#71f09f"/><path d="M57.906,146.631H6.5a6.549,6.549,0,0,1-5.705-3.249,6.02,6.02,0,0,1,.239-6.363L90.995,2.863A6.573,6.573,0,0,1,96.463,0H147.87a6.546,6.546,0,0,1,5.705,3.249,6.015,6.015,0,0,1-.239,6.363L63.375,143.768A6.573,6.573,0,0,1,57.906,146.631Zm-39.5-12.472H54.359l81.6-121.685H100.011Z" transform="translate(0)"/></g><path d="M141.359,0V.02h-.02L102.8,57.509,77.092,95.847,51.4,134.166H0l25.69-38.32L51.4,57.509,77.092,19.189,89.958.02V0Z" transform="translate(6.5 6.236)" fill="#71f09f"/><path d="M57.9,146.639H6.5A6.546,6.546,0,0,1,.8,143.39a6.015,6.015,0,0,1,.237-6.359L90.876,3.054A6.552,6.552,0,0,1,96.459,0h51.4a6.373,6.373,0,0,1,6.5,6.237v.018a6.03,6.03,0,0,1-1.3,3.743L63.371,143.774A6.569,6.569,0,0,1,57.9,146.639ZM18.409,134.167H54.354L135.944,12.475H100.018Z" transform="translate(0)"/></g><g transform="translate(0 0)"><path d="M89.963,0,0,134.156,89.963,268.292h51.408L51.408,134.156,141.371,0Z" transform="translate(6.499 6.236)" fill="#71f09f"/><path d="M147.871,280.765H96.464A6.573,6.573,0,0,1,91,277.9L1.035,143.766a6.02,6.02,0,0,1,0-6.749L91,2.863A6.574,6.574,0,0,1,96.464,0h51.407a6.541,6.541,0,0,1,5.705,3.249,6.016,6.016,0,0,1-.237,6.36l-87.7,130.782,87.7,130.761a6.021,6.021,0,0,1,.237,6.363A6.546,6.546,0,0,1,147.871,280.765Zm-47.862-12.472H135.96L52.441,143.766a6.02,6.02,0,0,1,0-6.749L135.96,12.472H100.012L14.23,140.391Z" transform="translate(0)"/><g transform="translate(51.407)"><path d="M89.963,0,0,134.156,89.963,268.292h51.408L51.408,134.156,141.371,0Z" transform="translate(6.5 6.236)" fill="#71f09f"/><path d="M147.871,280.765H96.464A6.568,6.568,0,0,1,91,277.9L1.035,143.766a6.02,6.02,0,0,1,0-6.749L91,2.863A6.565,6.565,0,0,1,96.464,0h51.407a6.541,6.541,0,0,1,5.705,3.249,6.015,6.015,0,0,1-.237,6.36l-87.7,130.782,87.7,130.761a6.02,6.02,0,0,1,.237,6.363A6.546,6.546,0,0,1,147.871,280.765Zm-47.859-12.472H135.96L52.441,143.766a6.02,6.02,0,0,1,0-6.749L135.96,12.472H100.012L14.23,140.391Z" transform="translate(0)"/></g><g transform="translate(102.813 0.003)"><path d="M115.668,229.954l25.711,38.339H89.958l-25.711-38.32L38.556,191.635,0,134.146,38.556,76.658,64.267,38.319,89.958,0h51.421L115.668,38.339,89.958,76.658,64.267,114.977,51.4,134.146l12.845,19.17Z" transform="translate(6.501 6.235)" fill="#71f09f"/><path d="M147.881,280.765H96.458a6.565,6.565,0,0,1-5.466-2.863L1.035,143.756a6.021,6.021,0,0,1,0-6.749L90.99,2.863A6.573,6.573,0,0,1,96.458,0h51.423a6.544,6.544,0,0,1,5.705,3.249,6.015,6.015,0,0,1-.239,6.36L65.631,140.384l62.006,92.432h0l25.71,38.337a6.02,6.02,0,0,1,.239,6.362A6.549,6.549,0,0,1,147.881,280.765Zm-47.875-12.472H135.97L52.433,143.753a6.021,6.021,0,0,1,.005-6.746L135.97,12.472H100.006L14.232,140.381Z" transform="translate(0)"/></g></g><g transform="translate(89.968 0)"><g transform="translate(102.81)"><path d="M51.408,0l89.964,134.156H89.963L0,0Z" transform="translate(6.501 6.236)" fill="#71f09f"/><path d="M147.873,146.626H96.463A6.569,6.569,0,0,1,91,143.766L1.034,9.609a6.016,6.016,0,0,1-.239-6.36A6.544,6.544,0,0,1,6.5,0H57.909a6.565,6.565,0,0,1,5.466,2.863l89.964,134.154a6.015,6.015,0,0,1,.24,6.36A6.544,6.544,0,0,1,147.873,146.626Zm-47.862-12.472h35.951L54.361,12.472H18.411Z" transform="translate(0)"/></g><g transform="translate(51.403)"><path d="M51.408,0l89.963,134.156H89.963L0,0Z" transform="translate(6.5 6.236)" fill="#71f09f"/><path d="M147.87,146.626H96.463A6.569,6.569,0,0,1,91,143.766L1.034,9.609a6.015,6.015,0,0,1-.239-6.36A6.544,6.544,0,0,1,6.5,0H57.906a6.574,6.574,0,0,1,5.469,2.863l89.961,134.154a6.01,6.01,0,0,1,.239,6.36A6.541,6.541,0,0,1,147.87,146.626Zm-47.859-12.472h35.948L54.359,12.472H18.411Z" transform="translate(0)"/></g><g transform="translate(64.248 114.978)"><path d="M25.711,19.15v.02L12.845,38.339,0,19.169,12.865,0Z" transform="translate(6.5 6.237)" fill="#71f09f"/><path d="M19.346,50.812h0a6.578,6.578,0,0,1-5.466-2.863L1.033,28.778a6.016,6.016,0,0,1,0-6.746L13.9,2.863A6.575,6.575,0,0,1,19.365,0h0a6.571,6.571,0,0,1,5.466,2.863l12.847,19.15a6.054,6.054,0,0,1,1.034,3.374v.018a6.036,6.036,0,0,1-1.037,3.375L24.812,47.952A6.577,6.577,0,0,1,19.346,50.812Zm-5.118-25.4,5.12,7.641L24.485,25.4,19.362,17.76Z" transform="translate(0)"/></g><g transform="translate(0 0.003)"><path d="M141.359,134.126v.02h-51.4v-.02l-12.845-19.15L51.4,76.658,25.711,38.319,0,0H51.4L77.112,38.319,102.8,76.658l38.536,57.469Z" transform="translate(6.501 6.235)" fill="#71f09f"/><path d="M147.861,146.616H96.46a6.546,6.546,0,0,1-5.664-3.173L1.033,9.609a6.021,6.021,0,0,1-.239-6.36A6.545,6.545,0,0,1,6.5,0H57.9a6.576,6.576,0,0,1,5.466,2.86L153.1,136.686a6.027,6.027,0,0,1,1.257,3.677v.018A6.371,6.371,0,0,1,147.861,146.616Zm-47.843-12.472h35.924L54.355,12.472H18.415Z" transform="translate(0)"/></g></g></g><g transform="translate(488.366 134.159)"><g transform="translate(89.97 134.128)"><g transform="translate(102.809 0.005)"><path d="M51.408,134.156,141.371,0H89.963L0,134.156Z" transform="translate(6.5 6.238)" fill="#71f09f"/><path d="M57.908,146.631H6.5a6.554,6.554,0,0,1-5.708-3.249,6.026,6.026,0,0,1,.239-6.363L91,2.863A6.573,6.573,0,0,1,96.465,0h51.407a6.546,6.546,0,0,1,5.705,3.249,6.02,6.02,0,0,1-.239,6.363L63.374,143.768A6.568,6.568,0,0,1,57.908,146.631Zm-39.5-12.472H54.358l81.6-121.685H100.013Z" transform="translate(0)"/></g><g transform="translate(51.401 0.005)"><path d="M51.408,134.156,141.371,0H89.963L0,134.156Z" transform="translate(6.5 6.238)" fill="#71f09f"/><path d="M57.909,146.631H6.5a6.546,6.546,0,0,1-5.705-3.249,6.021,6.021,0,0,1,.239-6.363L91,2.863A6.573,6.573,0,0,1,96.463,0h51.409a6.55,6.55,0,0,1,5.705,3.249,6.02,6.02,0,0,1-.239,6.363L63.375,143.768A6.568,6.568,0,0,1,57.909,146.631Zm-39.5-12.472H54.359l81.6-121.685H100.011Z" transform="translate(0)"/></g><path d="M141.359,0V.02h-.02L102.8,57.509,77.092,95.847,51.4,134.166H0l25.69-38.32L51.4,57.509,77.092,19.189,89.958.02V0Z" transform="translate(6.5 6.236)" fill="#71f09f"/><path d="M57.9,146.639H6.5A6.549,6.549,0,0,1,.795,143.39a6.021,6.021,0,0,1,.237-6.359L90.875,3.051A6.556,6.556,0,0,1,96.458,0h51.4a6.375,6.375,0,0,1,6.5,6.237v.018a6.03,6.03,0,0,1-1.3,3.743L63.369,143.774A6.569,6.569,0,0,1,57.9,146.639Zm-39.49-12.472H54.353l81.59-121.693H100.017Z" transform="translate(0)"/></g><g transform="translate(0 0)"><path d="M89.963,0,0,134.156,89.963,268.292h51.408L51.408,134.156,141.371,0Z" transform="translate(6.501 6.236)" fill="#71f09f"/><path d="M147.871,280.765H96.465A6.573,6.573,0,0,1,91,277.9L1.032,143.766a6.03,6.03,0,0,1,0-6.749L91,2.863A6.574,6.574,0,0,1,96.465,0h51.407a6.541,6.541,0,0,1,5.705,3.249,6.01,6.01,0,0,1-.239,6.36l-87.7,130.782,87.7,130.761a6.015,6.015,0,0,1,.239,6.363A6.546,6.546,0,0,1,147.871,280.765ZM100.01,268.293H135.96L52.442,143.766a6.021,6.021,0,0,1,0-6.749L135.96,12.472H100.012L14.23,140.391Z" transform="translate(0)"/><g transform="translate(51.407)"><path d="M89.963,0,0,134.156,89.963,268.292h51.408L51.408,134.156,141.371,0Z" transform="translate(6.501 6.236)" fill="#71f09f"/><path d="M147.873,280.765H96.464A6.568,6.568,0,0,1,91,277.9L1.034,143.766a6.02,6.02,0,0,1,0-6.749L91,2.863A6.565,6.565,0,0,1,96.464,0h51.409a6.545,6.545,0,0,1,5.705,3.249,6.016,6.016,0,0,1-.239,6.36l-87.7,130.782,87.7,130.761a6.02,6.02,0,0,1,.239,6.363A6.549,6.549,0,0,1,147.873,280.765Zm-47.862-12.472H135.96L52.441,143.766a6.03,6.03,0,0,1,0-6.749L135.962,12.472H100.012L14.23,140.391Z" transform="translate(0)"/></g><g transform="translate(102.814 0.003)"><path d="M115.668,229.954l25.711,38.339H89.958l-25.711-38.32L38.556,191.635,0,134.146,38.556,76.658,64.267,38.319,89.958,0h51.422L115.668,38.339,89.958,76.658,64.267,114.977,51.4,134.146l12.845,19.17Z" transform="translate(6.501 6.235)" fill="#71f09f"/><path d="M147.882,280.765H96.459a6.572,6.572,0,0,1-5.466-2.863L1.035,143.756a6.021,6.021,0,0,1,0-6.749L90.99,2.863A6.573,6.573,0,0,1,96.459,0h51.423a6.544,6.544,0,0,1,5.705,3.249,6.015,6.015,0,0,1-.239,6.36L65.634,140.384l62,92.432h0l25.71,38.337a6.02,6.02,0,0,1,.239,6.362A6.549,6.549,0,0,1,147.882,280.765Zm-47.875-12.472h35.964L52.436,143.753a6.02,6.02,0,0,1,0-6.749L135.971,12.472H100.006L14.232,140.381Z" transform="translate(0)"/></g></g><g transform="translate(89.97 0)"><g transform="translate(102.809)"><path d="M51.408,0l89.963,134.156H89.963L0,0Z" transform="translate(6.5 6.236)" fill="#71f09f"/><path d="M147.872,146.626H96.465A6.577,6.577,0,0,1,91,143.766L1.033,9.609a6.021,6.021,0,0,1-.239-6.36A6.549,6.549,0,0,1,6.5,0H57.908a6.569,6.569,0,0,1,5.466,2.863l89.964,134.154a6.016,6.016,0,0,1,.239,6.36A6.541,6.541,0,0,1,147.872,146.626Zm-47.859-12.472h35.948L54.358,12.472H18.412Z" transform="translate(0)"/></g><g transform="translate(51.402)"><path d="M51.408,0l89.963,134.156H89.963L0,0Z" transform="translate(6.5 6.236)" fill="#71f09f"/><path d="M147.873,146.626H96.463A6.569,6.569,0,0,1,91,143.766L1.034,9.609a6.016,6.016,0,0,1-.239-6.36A6.541,6.541,0,0,1,6.5,0H57.909a6.569,6.569,0,0,1,5.466,2.863l89.964,134.154a6.015,6.015,0,0,1,.239,6.36A6.545,6.545,0,0,1,147.873,146.626Zm-47.862-12.472h35.951L54.359,12.472H18.411Z" transform="translate(0)"/></g><g transform="translate(64.247 114.978)"><path d="M25.711,19.15v.02L12.845,38.339,0,19.169,12.865,0Z" transform="translate(6.5 6.237)" fill="#71f09f"/><path d="M19.346,50.812h0a6.586,6.586,0,0,1-5.466-2.863L1.033,28.778a6.02,6.02,0,0,1,0-6.749L13.9,2.86A6.574,6.574,0,0,1,19.365,0h0a6.578,6.578,0,0,1,5.466,2.863l12.844,19.15a6.061,6.061,0,0,1,1.034,3.374v.018a6.056,6.056,0,0,1-1.034,3.375L24.812,47.952A6.573,6.573,0,0,1,19.346,50.812Zm-5.115-25.4,5.117,7.641L24.485,25.4l-5.12-7.636Z" transform="translate(0)"/></g><g transform="translate(0 0.003)"><path d="M141.359,134.126v.02h-51.4v-.02l-12.845-19.15L51.4,76.658,25.711,38.319,0,0H51.4L77.112,38.319,102.8,76.658l38.536,57.469Z" transform="translate(6.5 6.235)" fill="#71f09f"/><path d="M147.86,146.616h-51.4a6.55,6.55,0,0,1-5.667-3.173L1.034,9.609a6.022,6.022,0,0,1-.242-6.36A6.548,6.548,0,0,1,6.5,0H57.9a6.573,6.573,0,0,1,5.466,2.86L153.1,136.686a6.026,6.026,0,0,1,1.257,3.677v.018A6.373,6.373,0,0,1,147.86,146.616Zm-47.843-12.472H135.94L54.354,12.472H18.414Z" transform="translate(0)"/></g></g></g><g transform="translate(488.366 402.46)"><g transform="translate(89.97 134.131)"><g transform="translate(102.809 0.008)"><path d="M51.408,134.156,141.371,0H89.963L0,134.156Z" transform="translate(6.5 6.236)" fill="#71f09f"/><path d="M57.908,146.626H6.5a6.549,6.549,0,0,1-5.708-3.249,6.022,6.022,0,0,1,.239-6.36L91,2.863A6.572,6.572,0,0,1,96.465,0h51.407a6.54,6.54,0,0,1,5.705,3.249,6.021,6.021,0,0,1-.239,6.363L63.374,143.766A6.572,6.572,0,0,1,57.908,146.626Zm-39.5-12.472H54.358l81.6-121.683H100.013Z" transform="translate(0)"/></g><g transform="translate(51.401 0.008)"><path d="M51.408,134.156,141.371,0H89.963L0,134.156Z" transform="translate(6.5 6.236)" fill="#71f09f"/><path d="M57.909,146.626H6.5a6.541,6.541,0,0,1-5.705-3.249,6.016,6.016,0,0,1,.239-6.36L91,2.863A6.564,6.564,0,0,1,96.463,0h51.409a6.544,6.544,0,0,1,5.705,3.249,6.02,6.02,0,0,1-.239,6.363L63.375,143.766A6.572,6.572,0,0,1,57.909,146.626Zm-39.5-12.472H54.359l81.6-121.683H100.011Z" transform="translate(0)"/></g><path d="M141.359,0V.02h-.02L102.8,57.509,77.092,95.847,51.4,134.166H0L25.69,95.847,51.4,57.509l25.691-38.32L89.958.02V0Z" transform="translate(6.5 6.236)" fill="#71f09f"/><path d="M57.9,146.637H6.5a6.541,6.541,0,0,1-5.705-3.249,6.016,6.016,0,0,1,.237-6.357L90.87,3.064A6.549,6.549,0,0,1,96.458,0h51.4a6.373,6.373,0,0,1,6.5,6.237v.018a6.032,6.032,0,0,1-1.3,3.745L63.369,143.774A6.573,6.573,0,0,1,57.9,146.637Zm-39.49-12.472H54.353l81.59-121.693H100.017Z" transform="translate(0)"/></g><path d="M89.963,0,0,134.156,89.963,268.292h51.408L51.408,134.156,141.371,0Z" transform="translate(6.501 6.239)" fill="#71f09f"/><path d="M147.871,280.765H96.465A6.577,6.577,0,0,1,91,277.9L1.032,143.768a6.03,6.03,0,0,1,0-6.749L91,2.863A6.58,6.58,0,0,1,96.465,0h51.407a6.543,6.543,0,0,1,5.705,3.252,6.01,6.01,0,0,1-.239,6.36l-87.7,130.783,87.7,130.761a6.01,6.01,0,0,1,.239,6.36A6.54,6.54,0,0,1,147.871,280.765ZM100.01,268.293H135.96L52.442,143.768a6.021,6.021,0,0,1,0-6.749L135.96,12.475H100.012L14.23,140.394Z" transform="translate(0)"/><g transform="translate(51.407)"><path d="M89.963,0,0,134.156,89.963,268.292h51.408L51.408,134.156,141.371,0Z" transform="translate(6.501 6.239)" fill="#71f09f"/><path d="M147.873,280.765H96.464A6.572,6.572,0,0,1,91,277.9L1.034,143.768a6.02,6.02,0,0,1,0-6.749L91,2.863A6.58,6.58,0,0,1,96.464,0h51.409a6.547,6.547,0,0,1,5.705,3.252,6.015,6.015,0,0,1-.239,6.36l-87.7,130.783,87.7,130.761a6.016,6.016,0,0,1,.239,6.36A6.544,6.544,0,0,1,147.873,280.765Zm-47.862-12.472H135.96L52.441,143.768a6.03,6.03,0,0,1,0-6.749L135.962,12.475H100.012L14.23,140.394Z" transform="translate(0)"/></g><g transform="translate(102.814 0.003)"><path d="M115.668,229.954l25.711,38.339H89.958L64.247,229.974,38.556,191.635,0,134.146,38.556,76.657,64.267,38.319,89.958,0h51.422L115.668,38.339,89.958,76.657l-25.691,38.32L51.4,134.146l12.845,19.17Z" transform="translate(6.501 6.238)" fill="#71f09f"/><path d="M147.882,280.765H96.459a6.577,6.577,0,0,1-5.466-2.86L1.035,143.758a6.021,6.021,0,0,1,0-6.749L90.99,2.865A6.576,6.576,0,0,1,96.459,0h51.423a6.546,6.546,0,0,1,5.705,3.252,6.016,6.016,0,0,1-.239,6.36L65.634,140.387l62,92.429h0l25.71,38.34a6.015,6.015,0,0,1,.239,6.36A6.544,6.544,0,0,1,147.882,280.765Zm-47.875-12.472h35.964L52.436,143.756a6.017,6.017,0,0,1,0-6.747L135.971,12.475H100.006L14.232,140.384Z" transform="translate(0)"/></g><g transform="translate(89.97)"><g transform="translate(102.809)"><path d="M51.408,0l89.963,134.156H89.963L0,0Z" transform="translate(6.5 6.239)" fill="#71f09f"/><path d="M147.872,146.632H96.465A6.572,6.572,0,0,1,91,143.768L1.033,9.612a6.021,6.021,0,0,1-.239-6.36A6.551,6.551,0,0,1,6.5,0H57.908a6.575,6.575,0,0,1,5.466,2.863L153.338,137.02a6.021,6.021,0,0,1,.239,6.363A6.546,6.546,0,0,1,147.872,146.632Zm-47.859-12.472h35.948L54.358,12.475H18.412Z" transform="translate(0)"/></g><g transform="translate(51.402)"><path d="M51.408,0l89.963,134.156H89.963L0,0Z" transform="translate(6.5 6.239)" fill="#71f09f"/><path d="M147.873,146.632H96.463A6.572,6.572,0,0,1,91,143.768L1.034,9.612a6.016,6.016,0,0,1-.239-6.36A6.544,6.544,0,0,1,6.5,0H57.909a6.575,6.575,0,0,1,5.466,2.863L153.339,137.02a6.02,6.02,0,0,1,.239,6.363A6.55,6.55,0,0,1,147.873,146.632Zm-47.862-12.472h35.951L54.359,12.475H18.411Z" transform="translate(0)"/></g><g transform="translate(64.247 114.98)"><path d="M25.711,19.15v.02L12.845,38.339,0,19.17,12.865,0Z" transform="translate(6.5 6.237)" fill="#71f09f"/><path d="M19.346,50.812h0a6.581,6.581,0,0,1-5.466-2.865L1.033,28.778a6.017,6.017,0,0,1,0-6.746L13.9,2.863A6.572,6.572,0,0,1,19.365,0h0a6.572,6.572,0,0,1,5.466,2.863l12.844,19.15a6.055,6.055,0,0,1,1.034,3.374v.018a6.03,6.03,0,0,1-1.037,3.374L24.812,47.949A6.569,6.569,0,0,1,19.346,50.812Zm-5.115-25.4,5.117,7.641L24.488,25.4,19.365,17.76Z" transform="translate(0)"/></g><g transform="translate(0 0.003)"><path d="M141.359,134.127v.02h-51.4v-.02l-12.845-19.15L51.4,76.657,25.711,38.319,0,0H51.4L77.112,38.319,102.8,76.657l38.536,57.469Z" transform="translate(6.5 6.238)" fill="#71f09f"/><path d="M147.86,146.621h-51.4a6.547,6.547,0,0,1-5.678-3.2L1.034,9.612a6.022,6.022,0,0,1-.242-6.36A6.551,6.551,0,0,1,6.5,0H57.9a6.575,6.575,0,0,1,5.466,2.863L153.1,136.686a6.035,6.035,0,0,1,1.257,3.68v.018A6.373,6.373,0,0,1,147.86,146.621Zm-47.84-12.472H135.94L54.354,12.475H18.414Z" transform="translate(0)"/></g></g></g><g transform="translate(488.366 670.766)"><g transform="translate(89.97 134.128)"><g transform="translate(102.809 0.008)"><path d="M51.408,134.156,141.371,0H89.963L0,134.156Z" transform="translate(6.5 6.236)" fill="#71f09f"/><path d="M57.908,146.629H6.5A6.549,6.549,0,0,1,.793,143.38a6.027,6.027,0,0,1,.239-6.363L91,2.86A6.577,6.577,0,0,1,96.465,0h51.407a6.541,6.541,0,0,1,5.705,3.249,6.016,6.016,0,0,1-.239,6.36L63.374,143.766A6.569,6.569,0,0,1,57.908,146.629Zm-39.5-12.472H54.358l81.6-121.685H100.013Z" transform="translate(0)"/></g><g transform="translate(51.401 0.008)"><path d="M51.408,134.156,141.371,0H89.963L0,134.156Z" transform="translate(6.5 6.236)" fill="#71f09f"/><path d="M57.909,146.629H6.5A6.541,6.541,0,0,1,.795,143.38a6.021,6.021,0,0,1,.239-6.363L91,2.86A6.577,6.577,0,0,1,96.463,0h51.409a6.545,6.545,0,0,1,5.705,3.249,6.016,6.016,0,0,1-.239,6.36L63.375,143.766A6.569,6.569,0,0,1,57.909,146.629Zm-39.5-12.472H54.359l81.6-121.685H100.011Z" transform="translate(0)"/></g><path d="M141.359,0V.02h-.02L102.8,57.509,77.092,95.847,51.4,134.166H0L25.69,95.847,51.4,57.509,77.092,19.189,89.958.02V0Z" transform="translate(6.5 6.236)" fill="#71f09f"/><path d="M57.9,146.639H6.5A6.55,6.55,0,0,1,.795,143.39a6.022,6.022,0,0,1,.237-6.36L90.87,3.061A6.55,6.55,0,0,1,96.458,0h51.4a6.373,6.373,0,0,1,6.5,6.235v.021a6.043,6.043,0,0,1-1.3,3.745L63.369,143.774A6.569,6.569,0,0,1,57.9,146.639Zm-39.49-12.472H54.353l81.59-121.7H100.017Z" transform="translate(0)"/></g><g transform="translate(0 0)"><path d="M89.963,0,0,134.156,89.963,268.292h51.408L51.408,134.156,141.371,0Z" transform="translate(6.501 6.236)" fill="#71f09f"/><path d="M147.871,280.765H96.465A6.574,6.574,0,0,1,91,277.9L1.032,143.766a6.031,6.031,0,0,1,0-6.749L91,2.863A6.573,6.573,0,0,1,96.465,0h51.407a6.546,6.546,0,0,1,5.705,3.249,6.015,6.015,0,0,1-.239,6.363l-87.7,130.78,87.7,130.761a6.015,6.015,0,0,1,.239,6.363A6.541,6.541,0,0,1,147.871,280.765ZM100.01,268.293H135.96L52.442,143.766a6.021,6.021,0,0,1,0-6.749L135.96,12.472H100.012L14.23,140.391Z" transform="translate(0)"/><g transform="translate(51.407)"><path d="M89.963,0,0,134.156,89.963,268.292h51.408L51.408,134.156,141.371,0Z" transform="translate(6.501 6.236)" fill="#71f09f"/><path d="M147.873,280.765H96.464A6.569,6.569,0,0,1,91,277.9L1.034,143.766a6.021,6.021,0,0,1,0-6.749L91,2.863A6.565,6.565,0,0,1,96.464,0h51.409a6.549,6.549,0,0,1,5.705,3.249,6.021,6.021,0,0,1-.239,6.363l-87.7,130.78,87.7,130.761a6.021,6.021,0,0,1,.239,6.363A6.544,6.544,0,0,1,147.873,280.765Zm-47.862-12.472H135.96L52.441,143.766a6.031,6.031,0,0,1,0-6.749L135.962,12.472H100.012L14.232,140.391Z" transform="translate(0)"/></g><g transform="translate(102.814 0.003)"><path d="M115.668,229.954l25.711,38.339H89.958L64.247,229.974,38.556,191.635,0,134.147,38.556,76.658,64.267,38.32,89.958,0h51.422L115.668,38.339,89.958,76.658,64.267,114.977,51.4,134.147l12.845,19.17Z" transform="translate(6.501 6.235)" fill="#71f09f"/><path d="M147.882,280.765H96.459a6.572,6.572,0,0,1-5.466-2.863L1.035,143.755a6.02,6.02,0,0,1,0-6.749L90.99,2.865A6.569,6.569,0,0,1,96.459,0h51.423a6.55,6.55,0,0,1,5.705,3.249,6.02,6.02,0,0,1-.239,6.363L65.634,140.384l62,92.432h0l25.71,38.338a6.02,6.02,0,0,1,.239,6.362A6.549,6.549,0,0,1,147.882,280.765Zm-47.875-12.472h35.964L52.436,143.753a6.021,6.021,0,0,1,0-6.749L135.971,12.472H100.006L14.232,140.381Z" transform="translate(0)"/></g></g><g transform="translate(89.97 0)"><g transform="translate(102.809)"><path d="M51.408,0l89.963,134.156H89.963L0,0Z" transform="translate(6.5 6.236)" fill="#71f09f"/><path d="M147.872,146.629H96.465A6.573,6.573,0,0,1,91,143.766L1.033,9.612A6.026,6.026,0,0,1,.793,3.249,6.554,6.554,0,0,1,6.5,0H57.908a6.568,6.568,0,0,1,5.466,2.863l89.964,134.154a6.02,6.02,0,0,1,.239,6.363A6.547,6.547,0,0,1,147.872,146.629Zm-47.859-12.475h35.948L54.358,12.472H18.412Z" transform="translate(0)"/></g><g transform="translate(51.402)"><path d="M51.408,0l89.963,134.156H89.963L0,0Z" transform="translate(6.5 6.236)" fill="#71f09f"/><path d="M147.873,146.629H96.463A6.564,6.564,0,0,1,91,143.766L1.034,9.612A6.021,6.021,0,0,1,.795,3.249,6.546,6.546,0,0,1,6.5,0H57.909a6.568,6.568,0,0,1,5.466,2.863l89.964,134.154a6.02,6.02,0,0,1,.239,6.363A6.551,6.551,0,0,1,147.873,146.629Zm-47.862-12.475h35.951L54.359,12.472H18.411Z" transform="translate(0)"/></g><g transform="translate(64.247 114.98)"><path d="M25.711,19.15v.02L12.845,38.339,0,19.17,12.865,0Z" transform="translate(6.5 6.234)" fill="#71f09f"/><path d="M19.346,50.809h0a6.586,6.586,0,0,1-5.466-2.863L1.033,28.775a6.021,6.021,0,0,1,0-6.749L13.9,2.858A6.572,6.572,0,0,1,19.365,0h0a6.576,6.576,0,0,1,5.466,2.86L37.678,22.008a6.055,6.055,0,0,1,1.034,3.374V25.4a6.054,6.054,0,0,1-1.034,3.374L24.812,47.949A6.572,6.572,0,0,1,19.346,50.809Zm-5.115-25.4,5.117,7.641,5.139-7.654-5.123-7.636Z" transform="translate(0)"/></g><g transform="translate(0 0.003)"><path d="M141.359,134.127v.02h-51.4v-.02l-12.845-19.15L51.4,76.658,25.711,38.32,0,0H51.4L77.112,38.32,102.8,76.658l38.536,57.469Z" transform="translate(6.5 6.235)" fill="#71f09f"/><path d="M147.86,146.618h-51.4a6.547,6.547,0,0,1-5.678-3.2L1.034,9.612A6.027,6.027,0,0,1,.792,3.249,6.554,6.554,0,0,1,6.5,0H57.9a6.569,6.569,0,0,1,5.466,2.863L153.1,136.683a6.032,6.032,0,0,1,1.257,3.677v.021A6.375,6.375,0,0,1,147.86,146.618Zm-47.843-12.475H135.94L54.354,12.472H18.414Z" transform="translate(0)"/></g></g></g><g transform="translate(244.181 0)"><g transform="translate(89.968 134.128)"><g transform="translate(102.809 0.008)"><path d="M51.408,134.156,141.371,0H89.964L0,134.156Z" transform="translate(6.501 6.236)" fill="#71f09f"/><path d="M57.909,146.629H6.5A6.55,6.55,0,0,1,.795,143.38a6.02,6.02,0,0,1,.239-6.363L91,2.863A6.565,6.565,0,0,1,96.463,0h51.409a6.549,6.549,0,0,1,5.705,3.249,6.02,6.02,0,0,1-.239,6.363L63.375,143.766A6.565,6.565,0,0,1,57.909,146.629Zm-39.5-12.475H54.361l81.6-121.682H100.011Z" transform="translate(0)"/></g><g transform="translate(51.403 0.008)"><path d="M51.408,134.156,141.371,0H89.964L0,134.156Z" transform="translate(6.5 6.236)" fill="#71f09f"/><path d="M57.906,146.629H6.5A6.55,6.55,0,0,1,.795,143.38a6.02,6.02,0,0,1,.239-6.363L91,2.863A6.565,6.565,0,0,1,96.463,0H147.87a6.546,6.546,0,0,1,5.705,3.249,6.015,6.015,0,0,1-.239,6.363L63.375,143.766A6.573,6.573,0,0,1,57.906,146.629Zm-39.5-12.475H54.359l81.6-121.682H100.011Z" transform="translate(0)"/></g><path d="M141.359,0V.02h-.02L102.8,57.508,77.092,95.847,51.4,134.166H0L25.69,95.847,51.4,57.508,77.092,19.189,89.958.02V0Z" transform="translate(6.501 6.237)" fill="#71f09f"/><path d="M57.9,146.639H6.5a6.55,6.55,0,0,1-5.708-3.252,6.017,6.017,0,0,1,.239-6.357L90.871,3.064A6.557,6.557,0,0,1,96.46,0h51.4a6.373,6.373,0,0,1,6.5,6.237v.021a6.032,6.032,0,0,1-1.3,3.743L63.368,143.774A6.561,6.561,0,0,1,57.9,146.639ZM18.41,134.165H54.355L135.944,12.472H100.018Z" transform="translate(0)"/></g><g transform="translate(0 0)"><path d="M89.964,0,0,134.156,89.964,268.292h51.408L51.408,134.156,141.371,0Z" transform="translate(6.499 6.236)" fill="#71f09f"/><path d="M147.87,280.765H96.464A6.573,6.573,0,0,1,91,277.9L1.035,143.766a6.016,6.016,0,0,1,0-6.746L91,2.86A6.577,6.577,0,0,1,96.464,0H147.87a6.541,6.541,0,0,1,5.705,3.249,6.01,6.01,0,0,1-.239,6.36l-87.7,130.785,87.7,130.759a6.014,6.014,0,0,1,.239,6.363A6.547,6.547,0,0,1,147.87,280.765ZM100.009,268.29h35.951L52.441,143.766a6.017,6.017,0,0,1,0-6.746L135.959,12.472H100.012L14.23,140.394Z" transform="translate(0)"/><g transform="translate(51.407)"><path d="M89.963,0,0,134.156,89.963,268.292h51.408L51.408,134.156,141.371,0Z" transform="translate(6.5 6.236)" fill="#71f09f"/><path d="M147.87,280.765H96.464A6.568,6.568,0,0,1,91,277.9L1.034,143.766a6.017,6.017,0,0,1,0-6.746L91,2.86A6.568,6.568,0,0,1,96.464,0H147.87a6.541,6.541,0,0,1,5.705,3.249,6.015,6.015,0,0,1-.237,6.36l-87.7,130.785,87.7,130.759a6.02,6.02,0,0,1,.237,6.363A6.547,6.547,0,0,1,147.87,280.765ZM100.012,268.29H135.96L52.441,143.766a6.016,6.016,0,0,1,0-6.746L135.96,12.472H100.012L14.23,140.394Z" transform="translate(0)"/></g><g transform="translate(102.813 0.003)"><path d="M115.668,229.954l25.711,38.339H89.958L64.247,229.973,38.556,191.635,0,134.146,38.556,76.657,64.267,38.319,89.958,0h51.421L115.668,38.339,89.958,76.657l-25.691,38.32L51.4,134.146l12.845,19.17Z" transform="translate(6.501 6.236)" fill="#71f09f"/><path d="M147.881,280.765H96.458a6.565,6.565,0,0,1-5.466-2.863L1.035,143.758a6.021,6.021,0,0,1,0-6.749L90.99,2.863A6.573,6.573,0,0,1,96.458,0h51.423a6.545,6.545,0,0,1,5.705,3.249,6.016,6.016,0,0,1-.239,6.36L65.631,140.386l62.006,92.43h0l25.71,38.337a6.016,6.016,0,0,1,.239,6.36A6.546,6.546,0,0,1,147.881,280.765ZM100.006,268.29H135.97L52.436,143.756a6.022,6.022,0,0,1,0-6.746L135.97,12.472H100.006L14.232,140.384Z"/></g></g><g transform="translate(89.968 0)"><g transform="translate(102.809)"><path d="M51.408,0l89.963,134.156H89.964L0,0Z" transform="translate(6.501 6.236)" fill="#71f09f"/><path d="M147.873,146.629H96.463a6.573,6.573,0,0,1-5.468-2.863L1.034,9.609a6.015,6.015,0,0,1-.239-6.36A6.544,6.544,0,0,1,6.5,0H57.909a6.577,6.577,0,0,1,5.469,2.86L153.338,137.02a6.015,6.015,0,0,1,.239,6.36A6.544,6.544,0,0,1,147.873,146.629Zm-47.862-12.472h35.951L54.361,12.472H18.411Z" transform="translate(0)"/></g><g transform="translate(51.403)"><path d="M51.408,0l89.964,134.156H89.964L0,0Z" transform="translate(6.5 6.236)" fill="#71f09f"/><path d="M147.87,146.629H96.463a6.574,6.574,0,0,1-5.469-2.863L1.034,9.609a6.015,6.015,0,0,1-.239-6.36A6.544,6.544,0,0,1,6.5,0H57.906a6.577,6.577,0,0,1,5.469,2.86L153.336,137.02a6.01,6.01,0,0,1,.239,6.36A6.541,6.541,0,0,1,147.87,146.629Zm-47.859-12.472h35.948L54.359,12.472H18.411Z" transform="translate(0)"/></g><g transform="translate(64.248 114.978)"><path d="M25.711,19.15v.02L12.845,38.339,0,19.17,12.865,0Z" transform="translate(6.5 6.237)" fill="#71f09f"/><path d="M19.346,50.812h0a6.573,6.573,0,0,1-5.466-2.865L1.033,28.78a6.022,6.022,0,0,1,0-6.746L13.9,2.863A6.567,6.567,0,0,1,19.365,0h0a6.564,6.564,0,0,1,5.466,2.863l12.847,19.15a6.055,6.055,0,0,1,1.034,3.374v.021a6.046,6.046,0,0,1-1.037,3.377L24.809,47.952A6.568,6.568,0,0,1,19.346,50.812Zm-5.118-25.4,5.12,7.639L24.488,25.4l-5.126-7.639Z" transform="translate(0)"/></g><g transform="translate(0 0.003)"><path d="M141.359,134.127v.02h-51.4v-.02l-12.845-19.15L51.4,76.657,25.711,38.319,0,0H51.4L77.112,38.319,102.8,76.657l38.536,57.469Z" transform="translate(6.501 6.236)" fill="#71f09f"/><path d="M147.861,146.618H96.46a6.551,6.551,0,0,1-5.678-3.194L1.033,9.609a6.021,6.021,0,0,1-.239-6.36A6.546,6.546,0,0,1,6.5,0H57.9a6.576,6.576,0,0,1,5.466,2.861L153.1,136.686a6.021,6.021,0,0,1,1.257,3.677v.021A6.373,6.373,0,0,1,147.861,146.618Zm-47.84-12.472h35.921L54.355,12.472H18.415Z" transform="translate(0)"/></g></g></g><g transform="translate(244.181 268.29)"><g transform="translate(89.968 134.131)"><g transform="translate(102.809 0.008)"><path d="M51.408,134.156,141.371,0H89.964L0,134.156Z" transform="translate(6.501 6.235)" fill="#71f09f"/><path d="M57.909,146.626H6.5a6.544,6.544,0,0,1-5.705-3.249,6.015,6.015,0,0,1,.239-6.36L91,2.86A6.569,6.569,0,0,1,96.463,0h51.409a6.545,6.545,0,0,1,5.705,3.249,6.016,6.016,0,0,1-.239,6.36L63.375,143.766A6.569,6.569,0,0,1,57.909,146.626Zm-39.5-12.472H54.361l81.6-121.682H100.011Z" transform="translate(0)"/></g><g transform="translate(51.403 0.008)"><path d="M51.408,134.156,141.371,0H89.964L0,134.156Z" transform="translate(6.5 6.235)" fill="#71f09f"/><path d="M57.906,146.626H6.5a6.544,6.544,0,0,1-5.705-3.249,6.015,6.015,0,0,1,.239-6.36L91,2.86A6.569,6.569,0,0,1,96.463,0H147.87a6.541,6.541,0,0,1,5.705,3.249,6.01,6.01,0,0,1-.239,6.36L63.375,143.766A6.577,6.577,0,0,1,57.906,146.626Zm-39.5-12.472H54.359l81.6-121.682H100.011Z" transform="translate(0)"/></g><path d="M141.359,0V.02h-.02L102.8,57.509,77.092,95.847,51.4,134.166H0l25.69-38.32L51.4,57.509,77.092,19.189,89.958.02V0Z" transform="translate(6.501 6.236)" fill="#71f09f"/><path d="M57.9,146.637H6.5a6.548,6.548,0,0,1-5.708-3.249,6.016,6.016,0,0,1,.239-6.357L90.871,3.064A6.556,6.556,0,0,1,96.46,0h51.4a6.373,6.373,0,0,1,6.5,6.235v.021a6.043,6.043,0,0,1-1.3,3.745L63.368,143.774A6.565,6.565,0,0,1,57.9,146.637ZM18.41,134.165H54.355L135.944,12.472H100.018Z" transform="translate(0)"/></g><path d="M89.964,0,0,134.156,89.964,268.292h51.408L51.408,134.156,141.371,0Z" transform="translate(6.499 6.238)" fill="#71f09f"/><path d="M147.87,280.765H96.464A6.577,6.577,0,0,1,91,277.9L1.035,143.768a6.02,6.02,0,0,1,0-6.749L91,2.863A6.574,6.574,0,0,1,96.464,0H147.87a6.547,6.547,0,0,1,5.705,3.249,6.015,6.015,0,0,1-.239,6.363l-87.7,130.782,87.7,130.762a6.01,6.01,0,0,1,.239,6.36A6.541,6.541,0,0,1,147.87,280.765Zm-47.862-12.472h35.951L52.441,143.768a6.021,6.021,0,0,1,0-6.749L135.959,12.475H100.012L14.23,140.394Z" transform="translate(0)"/><g transform="translate(51.407)"><path d="M89.963,0,0,134.156,89.963,268.292h51.408L51.408,134.156,141.371,0Z" transform="translate(6.5 6.238)" fill="#71f09f"/><path d="M147.87,280.765H96.464A6.572,6.572,0,0,1,91,277.9L1.034,143.768a6.021,6.021,0,0,1,0-6.749L91,2.863A6.565,6.565,0,0,1,96.464,0H147.87a6.546,6.546,0,0,1,5.705,3.249,6.02,6.02,0,0,1-.237,6.363l-87.7,130.782,87.7,130.762a6.015,6.015,0,0,1,.237,6.36A6.54,6.54,0,0,1,147.87,280.765Zm-47.859-12.472H135.96L52.441,143.768a6.02,6.02,0,0,1,0-6.749L135.96,12.475H100.012L14.23,140.394Z" transform="translate(0)"/></g><g transform="translate(102.813 0.003)"><path d="M115.668,229.954l25.711,38.339H89.958l-25.711-38.32L38.556,191.635,0,134.146,38.556,76.658,64.267,38.319,89.958,0h51.421L115.668,38.339,89.958,76.658,64.267,114.977,51.4,134.146l12.845,19.17Z" transform="translate(6.501 6.237)" fill="#71f09f"/><path d="M147.881,280.765H96.458a6.569,6.569,0,0,1-5.466-2.86L1.035,143.758a6.021,6.021,0,0,1,0-6.749L90.99,2.865A6.569,6.569,0,0,1,96.458,0h51.423a6.549,6.549,0,0,1,5.705,3.249,6.021,6.021,0,0,1-.239,6.363L65.631,140.386l62.006,92.43h0l25.71,38.34a6.016,6.016,0,0,1,.239,6.36A6.544,6.544,0,0,1,147.881,280.765Zm-47.875-12.472H135.97L52.436,143.756a6.022,6.022,0,0,1,0-6.747L135.97,12.474H100.006L14.232,140.384Z"/></g><g transform="translate(89.968)"><g transform="translate(102.809)"><path d="M51.408,0l89.963,134.156H89.964L0,0Z" transform="translate(6.501 6.238)" fill="#71f09f"/><path d="M147.873,146.631H96.463a6.573,6.573,0,0,1-5.468-2.863L1.034,9.612A6.02,6.02,0,0,1,.795,3.249,6.55,6.55,0,0,1,6.5,0H57.909a6.574,6.574,0,0,1,5.469,2.863L153.338,137.02a6.02,6.02,0,0,1,.239,6.363A6.55,6.55,0,0,1,147.873,146.631ZM100.011,134.16h35.951L54.361,12.475H18.411Z" transform="translate(0)"/></g><g transform="translate(51.403)"><path d="M51.408,0l89.964,134.156H89.964L0,0Z" transform="translate(6.5 6.238)" fill="#71f09f"/><path d="M147.87,146.631H96.463a6.573,6.573,0,0,1-5.469-2.863L1.034,9.612A6.02,6.02,0,0,1,.795,3.249,6.55,6.55,0,0,1,6.5,0H57.906a6.574,6.574,0,0,1,5.469,2.863L153.336,137.02a6.015,6.015,0,0,1,.239,6.363A6.546,6.546,0,0,1,147.87,146.631ZM100.011,134.16h35.948L54.359,12.475H18.411Z" transform="translate(0)"/></g><g transform="translate(64.248 114.981)"><path d="M25.711,19.15v.02L12.845,38.339,0,19.17,12.865,0Z" transform="translate(6.5 6.236)" fill="#71f09f"/><path d="M19.346,50.812h0a6.574,6.574,0,0,1-5.466-2.866L1.033,28.778a6.022,6.022,0,0,1,0-6.746L13.9,2.863A6.568,6.568,0,0,1,19.365,0h0a6.565,6.565,0,0,1,5.466,2.863l12.847,19.15a6.041,6.041,0,0,1,1.034,3.372v.021a6.045,6.045,0,0,1-1.037,3.377L24.809,47.951A6.569,6.569,0,0,1,19.346,50.812Zm-5.118-25.4,5.12,7.641L24.488,25.4l-5.126-7.636Z" transform="translate(0)"/></g><g transform="translate(0 0.003)"><path d="M141.359,134.127v.02h-51.4v-.02l-12.845-19.15L51.4,76.658,25.711,38.319,0,0H51.4L77.112,38.319,102.8,76.658l38.536,57.469Z" transform="translate(6.501 6.237)" fill="#71f09f"/><path d="M147.861,146.621H96.46a6.547,6.547,0,0,1-5.678-3.2L1.033,9.612A6.025,6.025,0,0,1,.794,3.249,6.55,6.55,0,0,1,6.5,0H57.9a6.572,6.572,0,0,1,5.466,2.863L153.1,136.686a6.032,6.032,0,0,1,1.257,3.677v.021A6.373,6.373,0,0,1,147.861,146.621Zm-47.84-12.472h35.921L54.355,12.474H18.415Z" transform="translate(0)"/></g></g></g><g transform="translate(244.181 536.583)"><g transform="translate(89.968 134.131)"><g transform="translate(102.809 0.005)"><path d="M51.408,134.156,141.371,0H89.964L0,134.156Z" transform="translate(6.501 6.237)" fill="#71f09f"/><path d="M57.909,146.629H6.5A6.545,6.545,0,0,1,.795,143.38a6.02,6.02,0,0,1,.239-6.363L91,2.863A6.572,6.572,0,0,1,96.463,0h51.409a6.547,6.547,0,0,1,5.705,3.252,6.015,6.015,0,0,1-.239,6.36L63.375,143.766A6.565,6.565,0,0,1,57.909,146.629Zm-39.5-12.472H54.361l81.6-121.682H100.011Z" transform="translate(0)"/></g><g transform="translate(51.403 0.005)"><path d="M51.408,134.156,141.371,0H89.964L0,134.156Z" transform="translate(6.5 6.237)" fill="#71f09f"/><path d="M57.906,146.629H6.5A6.545,6.545,0,0,1,.795,143.38a6.02,6.02,0,0,1,.239-6.363L91,2.863A6.571,6.571,0,0,1,96.463,0H147.87a6.543,6.543,0,0,1,5.705,3.252,6.01,6.01,0,0,1-.239,6.36L63.375,143.766A6.574,6.574,0,0,1,57.906,146.629Zm-39.5-12.472H54.359l81.6-121.682H100.011Z" transform="translate(0)"/></g><path d="M141.359,0V.02h-.02L102.8,57.509,77.092,95.847,51.4,134.166H0L25.69,95.847,51.4,57.509l25.691-38.32L89.958.02V0Z" transform="translate(6.501 6.235)" fill="#71f09f"/><path d="M57.9,146.637H6.5a6.554,6.554,0,0,1-5.708-3.249,6.021,6.021,0,0,1,.239-6.36L90.871,3.061A6.553,6.553,0,0,1,96.46,0h51.4a6.373,6.373,0,0,1,6.5,6.235v.021a6.044,6.044,0,0,1-1.3,3.745L63.368,143.771A6.56,6.56,0,0,1,57.9,146.637ZM18.41,134.165H54.355L135.944,12.472H100.018Z" transform="translate(0)"/></g><path d="M89.964,0,0,134.156,89.964,268.292h51.408L51.408,134.156,141.371,0Z" transform="translate(6.499 6.237)" fill="#71f09f"/><path d="M147.87,280.765H96.464A6.573,6.573,0,0,1,91,277.9L1.035,143.769a6.021,6.021,0,0,1,0-6.749L91,2.863A6.573,6.573,0,0,1,96.464,0H147.87a6.546,6.546,0,0,1,5.705,3.249,6.014,6.014,0,0,1-.239,6.362l-87.7,130.782,87.7,130.759a6.015,6.015,0,0,1,.239,6.363A6.542,6.542,0,0,1,147.87,280.765Zm-47.862-12.472h35.951L52.441,143.769a6.021,6.021,0,0,1,0-6.749L135.959,12.472H100.012L14.23,140.394Z" transform="translate(0)"/><g transform="translate(51.407)"><path d="M89.963,0,0,134.156,89.963,268.292h51.408L51.408,134.156,141.371,0Z" transform="translate(6.5 6.237)" fill="#71f09f"/><path d="M147.87,280.765H96.464A6.569,6.569,0,0,1,91,277.9L1.034,143.769a6.021,6.021,0,0,1,0-6.749L91,2.863A6.565,6.565,0,0,1,96.464,0H147.87a6.546,6.546,0,0,1,5.705,3.249,6.02,6.02,0,0,1-.237,6.362l-87.7,130.782,87.7,130.759a6.02,6.02,0,0,1,.237,6.363A6.541,6.541,0,0,1,147.87,280.765Zm-47.859-12.472H135.96L52.441,143.769a6.021,6.021,0,0,1,0-6.749L135.96,12.472H100.012L14.23,140.394Z" transform="translate(0)"/></g><g transform="translate(102.813 0.003)"><path d="M115.668,229.954l25.711,38.339H89.958L64.247,229.974,38.556,191.635,0,134.146,38.556,76.658,64.267,38.319,89.958,0h51.421L115.668,38.339,89.958,76.658,64.267,114.977,51.4,134.146l12.845,19.169Z" transform="translate(6.501 6.236)" fill="#71f09f"/><path d="M147.881,280.765H96.458a6.564,6.564,0,0,1-5.466-2.863L1.035,143.758a6.02,6.02,0,0,1,0-6.749L90.99,2.865A6.568,6.568,0,0,1,96.458,0h51.423a6.55,6.55,0,0,1,5.705,3.249,6.021,6.021,0,0,1-.239,6.363L65.631,140.386l62.006,92.43h0l25.71,38.337a6.021,6.021,0,0,1,.239,6.363A6.55,6.55,0,0,1,147.881,280.765Zm-47.875-12.472H135.97L52.436,143.755a6.021,6.021,0,0,1,0-6.746L135.97,12.472H100.006L14.232,140.384Z"/></g><g transform="translate(89.968)"><g transform="translate(102.809)"><path d="M51.408,0l89.963,134.156H89.964L0,0Z" transform="translate(6.501 6.237)" fill="#71f09f"/><path d="M147.873,146.631H96.463a6.58,6.58,0,0,1-5.468-2.863L1.034,9.612A6.02,6.02,0,0,1,.795,3.249,6.55,6.55,0,0,1,6.5,0H57.909a6.573,6.573,0,0,1,5.469,2.863L153.338,137.02a6.016,6.016,0,0,1,.239,6.36A6.546,6.546,0,0,1,147.873,146.631Zm-47.862-12.474h35.951L54.361,12.472H18.411Z" transform="translate(0)"/></g><g transform="translate(51.403)"><path d="M51.408,0l89.964,134.156H89.964L0,0Z" transform="translate(6.5 6.237)" fill="#71f09f"/><path d="M147.87,146.631H96.463a6.58,6.58,0,0,1-5.469-2.863L1.034,9.612A6.02,6.02,0,0,1,.795,3.249,6.55,6.55,0,0,1,6.5,0H57.906a6.574,6.574,0,0,1,5.469,2.863L153.336,137.02a6.01,6.01,0,0,1,.239,6.36A6.542,6.542,0,0,1,147.87,146.631Zm-47.859-12.474h35.948L54.359,12.472H18.411Z" transform="translate(0)"/></g><g transform="translate(64.248 114.98)"><path d="M25.711,19.15v.02L12.845,38.339,0,19.169,12.865,0Z" transform="translate(6.5 6.235)" fill="#71f09f"/><path d="M19.346,50.809h0a6.577,6.577,0,0,1-5.466-2.863L1.033,28.778a6.021,6.021,0,0,1,0-6.746L13.9,2.86A6.572,6.572,0,0,1,19.365,0h0a6.569,6.569,0,0,1,5.466,2.86L37.678,22.01a6.055,6.055,0,0,1,1.034,3.374v.021a6.045,6.045,0,0,1-1.037,3.377L24.809,47.952A6.572,6.572,0,0,1,19.346,50.809Zm-5.118-25.4,5.12,7.641L24.488,25.4l-5.126-7.639Z" transform="translate(0)"/></g><g transform="translate(0 0.003)"><path d="M141.359,134.127v.02h-51.4v-.02l-12.845-19.15L51.4,76.658,25.711,38.319,0,0H51.4L77.112,38.319,102.8,76.658l38.536,57.469Z" transform="translate(6.501 6.236)" fill="#71f09f"/><path d="M147.861,146.621H96.46a6.547,6.547,0,0,1-5.678-3.2L1.033,9.612A6.026,6.026,0,0,1,.794,3.249,6.551,6.551,0,0,1,6.5,0H57.9a6.572,6.572,0,0,1,5.466,2.863L153.1,136.686a6.031,6.031,0,0,1,1.257,3.677v.021A6.375,6.375,0,0,1,147.861,146.621Zm-47.84-12.475h35.921L54.355,12.472H18.415Z" transform="translate(0)"/></g></g></g><g transform="translate(732.547 0)"><g transform="translate(89.97 134.128)"><g transform="translate(102.809 0.008)"><path d="M51.408,134.156,141.371,0H89.963L0,134.156Z" transform="translate(6.5 6.236)" fill="#71f09f"/><path d="M57.908,146.629H6.5A6.554,6.554,0,0,1,.793,143.38a6.026,6.026,0,0,1,.239-6.363L91,2.863A6.573,6.573,0,0,1,96.465,0h51.407a6.546,6.546,0,0,1,5.705,3.249,6.02,6.02,0,0,1-.239,6.363L63.374,143.766A6.568,6.568,0,0,1,57.908,146.629Zm-39.5-12.475H54.358l81.6-121.682H100.013Z" transform="translate(0)"/></g><g transform="translate(51.401 0.008)"><path d="M51.408,134.156,141.371,0H89.963L0,134.156Z" transform="translate(6.5 6.236)" fill="#71f09f"/><path d="M57.909,146.629H6.5A6.547,6.547,0,0,1,.795,143.38a6.02,6.02,0,0,1,.239-6.363L91,2.863A6.566,6.566,0,0,1,96.463,0h51.409a6.549,6.549,0,0,1,5.705,3.249,6.02,6.02,0,0,1-.239,6.363L63.375,143.766A6.568,6.568,0,0,1,57.909,146.629Zm-39.5-12.475H54.359l81.6-121.682H100.011Z" transform="translate(0)"/></g><path d="M141.359,0V.02h-.02L102.8,57.508,77.092,95.847,51.4,134.166H0L25.69,95.847,51.4,57.508,77.092,19.189,89.958.02V0Z" transform="translate(6.5 6.237)" fill="#71f09f"/><path d="M57.9,146.639H6.5a6.542,6.542,0,0,1-5.7-3.252,6.017,6.017,0,0,1,.236-6.357L90.87,3.064A6.55,6.55,0,0,1,96.458,0h51.4a6.373,6.373,0,0,1,6.5,6.237v.021a6.032,6.032,0,0,1-1.3,3.743L63.37,143.774A6.569,6.569,0,0,1,57.9,146.639ZM18.408,134.165H54.354L135.943,12.472H100.017Z" transform="translate(0)"/></g><g transform="translate(0 0)"><path d="M89.963,0,0,134.156,89.963,268.292h51.408L51.408,134.156,141.371,0Z" transform="translate(6.5 6.236)" fill="#71f09f"/><path d="M147.871,280.765H96.465A6.573,6.573,0,0,1,91,277.9L1.033,143.766a6.026,6.026,0,0,1,0-6.746L91,2.86A6.577,6.577,0,0,1,96.465,0h51.407a6.541,6.541,0,0,1,5.705,3.249,6.01,6.01,0,0,1-.239,6.36l-87.7,130.785,87.7,130.759a6.015,6.015,0,0,1,.239,6.363A6.547,6.547,0,0,1,147.871,280.765ZM100.01,268.29h35.95L52.442,143.766a6.016,6.016,0,0,1,0-6.746L135.96,12.472H100.012L14.23,140.394Z" transform="translate(0)"/><g transform="translate(51.407)"><path d="M89.963,0,0,134.156,89.963,268.292h51.408L51.408,134.156,141.371,0Z" transform="translate(6.501 6.236)" fill="#71f09f"/><path d="M147.873,280.765H96.464A6.568,6.568,0,0,1,91,277.9L1.035,143.766a6.016,6.016,0,0,1,0-6.746L91,2.86A6.577,6.577,0,0,1,96.464,0h51.409a6.544,6.544,0,0,1,5.7,3.249,6.015,6.015,0,0,1-.239,6.36l-87.7,130.785,87.7,130.759a6.02,6.02,0,0,1,.239,6.363A6.55,6.55,0,0,1,147.873,280.765ZM100.012,268.29H135.96L52.441,143.766a6.025,6.025,0,0,1,0-6.746L135.962,12.472H100.012L14.23,140.394Z" transform="translate(0)"/></g><g transform="translate(102.814 0.003)"><path d="M115.668,229.954l25.711,38.339H89.957L64.247,229.973,38.556,191.635,0,134.146,38.556,76.657,64.266,38.319,89.957,0h51.422L115.668,38.339,89.957,76.657l-25.691,38.32L51.4,134.146l12.845,19.17Z" transform="translate(6.501 6.236)" fill="#71f09f"/><path d="M147.882,280.765H96.458a6.572,6.572,0,0,1-5.466-2.863L1.035,143.758a6.02,6.02,0,0,1,0-6.749L90.99,2.863A6.573,6.573,0,0,1,96.458,0h51.423a6.544,6.544,0,0,1,5.7,3.249,6.015,6.015,0,0,1-.239,6.36L65.633,140.386l62,92.43h0l25.71,38.337a6.015,6.015,0,0,1,.239,6.36A6.546,6.546,0,0,1,147.882,280.765ZM100.006,268.29H135.97L52.436,143.756a6.016,6.016,0,0,1,0-6.746L135.97,12.472H100.006L14.232,140.384Z" transform="translate(0)"/></g></g><g transform="translate(89.97 0)"><g transform="translate(102.809)"><path d="M51.408,0l89.963,134.156H89.963L0,0Z" transform="translate(6.5 6.236)" fill="#71f09f"/><path d="M147.871,146.629H96.465A6.573,6.573,0,0,1,91,143.766L1.033,9.609a6.022,6.022,0,0,1-.239-6.36A6.548,6.548,0,0,1,6.5,0H57.908a6.572,6.572,0,0,1,5.466,2.86L153.337,137.02a6.015,6.015,0,0,1,.239,6.36A6.541,6.541,0,0,1,147.871,146.629Zm-47.859-12.472H135.96L54.358,12.472H18.412Z" transform="translate(0)"/></g><g transform="translate(51.402)"><path d="M51.408,0l89.963,134.156H89.963L0,0Z" transform="translate(6.5 6.236)" fill="#71f09f"/><path d="M147.873,146.629H96.463a6.574,6.574,0,0,1-5.469-2.863L1.034,9.609a6.015,6.015,0,0,1-.239-6.36A6.541,6.541,0,0,1,6.5,0H57.909a6.572,6.572,0,0,1,5.466,2.86L153.338,137.02a6.016,6.016,0,0,1,.239,6.36A6.545,6.545,0,0,1,147.873,146.629Zm-47.862-12.472h35.951L54.359,12.472H18.411Z" transform="translate(0)"/></g><g transform="translate(64.247 114.978)"><path d="M25.711,19.15v.02L12.845,38.339,0,19.17,12.865,0Z" transform="translate(6.5 6.237)" fill="#71f09f"/><path d="M19.346,50.812h0a6.58,6.58,0,0,1-5.466-2.865L1.033,28.78a6.016,6.016,0,0,1,0-6.746L13.9,2.863A6.571,6.571,0,0,1,19.365,0h0a6.571,6.571,0,0,1,5.466,2.863l12.844,19.15a6.06,6.06,0,0,1,1.034,3.374v.021a6.034,6.034,0,0,1-1.037,3.375L24.812,47.949A6.572,6.572,0,0,1,19.346,50.812Zm-5.115-25.4,5.118,7.639L24.488,25.4l-5.123-7.639Z" transform="translate(0)"/></g><g transform="translate(0 0.003)"><path d="M141.359,134.127v.02h-51.4v-.02l-12.846-19.15L51.4,76.657,25.711,38.319,0,0H51.4L77.112,38.319,102.8,76.657l38.536,57.469Z" transform="translate(6.5 6.236)" fill="#71f09f"/><path d="M147.86,146.618h-51.4a6.551,6.551,0,0,1-5.678-3.194L1.034,9.609a6.022,6.022,0,0,1-.242-6.36A6.549,6.549,0,0,1,6.5,0H57.9a6.572,6.572,0,0,1,5.466,2.861L153.1,136.686a6.023,6.023,0,0,1,1.257,3.677v.021A6.373,6.373,0,0,1,147.86,146.618Zm-47.84-12.472h35.921L54.354,12.472H18.414Z" transform="translate(0)"/></g></g></g><g transform="translate(732.547 268.29)"><g transform="translate(89.97 134.131)"><g transform="translate(102.809 0.008)"><path d="M51.408,134.156,141.371,0H89.963L0,134.156Z" transform="translate(6.5 6.235)" fill="#71f09f"/><path d="M57.908,146.626H6.5a6.548,6.548,0,0,1-5.708-3.249,6.022,6.022,0,0,1,.239-6.36L91,2.86A6.577,6.577,0,0,1,96.465,0h51.407a6.541,6.541,0,0,1,5.705,3.249,6.015,6.015,0,0,1-.239,6.36L63.374,143.766A6.572,6.572,0,0,1,57.908,146.626Zm-39.5-12.472H54.358l81.6-121.682H100.013Z" transform="translate(0)"/></g><g transform="translate(51.401 0.008)"><path d="M51.408,134.156,141.371,0H89.963L0,134.156Z" transform="translate(6.5 6.235)" fill="#71f09f"/><path d="M57.909,146.626H6.5a6.54,6.54,0,0,1-5.705-3.249,6.015,6.015,0,0,1,.239-6.36L91,2.86A6.57,6.57,0,0,1,96.463,0h51.409a6.545,6.545,0,0,1,5.705,3.249,6.016,6.016,0,0,1-.239,6.36L63.375,143.766A6.572,6.572,0,0,1,57.909,146.626Zm-39.5-12.472H54.359l81.6-121.682H100.011Z" transform="translate(0)"/></g><path d="M141.359,0V.02h-.02L102.8,57.509,77.092,95.847,51.4,134.166H0l25.69-38.32L51.4,57.509,77.092,19.189,89.958.02V0Z" transform="translate(6.5 6.236)" fill="#71f09f"/><path d="M57.9,146.637H6.5a6.54,6.54,0,0,1-5.7-3.249,6.016,6.016,0,0,1,.236-6.357L90.87,3.064A6.549,6.549,0,0,1,96.458,0h51.4a6.373,6.373,0,0,1,6.5,6.235v.021a6.043,6.043,0,0,1-1.3,3.745L63.37,143.774A6.573,6.573,0,0,1,57.9,146.637ZM18.408,134.165H54.354L135.943,12.472H100.017Z" transform="translate(0)"/></g><path d="M89.963,0,0,134.156,89.963,268.292h51.408L51.408,134.156,141.371,0Z" transform="translate(6.5 6.238)" fill="#71f09f"/><path d="M147.871,280.765H96.465A6.577,6.577,0,0,1,91,277.9L1.033,143.768a6.03,6.03,0,0,1,0-6.749L91,2.863A6.574,6.574,0,0,1,96.465,0h51.407a6.546,6.546,0,0,1,5.705,3.249,6.015,6.015,0,0,1-.239,6.363L65.64,140.394l87.7,130.762a6.01,6.01,0,0,1,.239,6.36A6.54,6.54,0,0,1,147.871,280.765ZM100.01,268.293h35.95L52.442,143.768a6.02,6.02,0,0,1,0-6.749L135.96,12.475H100.012L14.23,140.394Z" transform="translate(0)"/><g transform="translate(51.407)"><path d="M89.963,0,0,134.156,89.963,268.292h51.408L51.408,134.156,141.371,0Z" transform="translate(6.501 6.238)" fill="#71f09f"/><path d="M147.873,280.765H96.464A6.572,6.572,0,0,1,91,277.9L1.035,143.768a6.02,6.02,0,0,1,0-6.749L91,2.863A6.574,6.574,0,0,1,96.464,0h51.409a6.549,6.549,0,0,1,5.7,3.249,6.02,6.02,0,0,1-.239,6.363l-87.7,130.782,87.7,130.762a6.015,6.015,0,0,1,.239,6.36A6.543,6.543,0,0,1,147.873,280.765Zm-47.862-12.472H135.96L52.441,143.768a6.029,6.029,0,0,1,0-6.749L135.962,12.475H100.012L14.233,140.394Z" transform="translate(0)"/></g><g transform="translate(102.814 0.003)"><path d="M115.668,229.954l25.711,38.339H89.957l-25.711-38.32L38.556,191.635,0,134.146,38.556,76.658,64.266,38.319,89.957,0h51.422L115.668,38.339,89.957,76.658,64.266,114.977,51.4,134.146l12.845,19.17Z" transform="translate(6.501 6.237)" fill="#71f09f"/><path d="M147.882,280.765H96.458a6.577,6.577,0,0,1-5.466-2.86L1.035,143.758a6.02,6.02,0,0,1,0-6.749L90.99,2.865A6.569,6.569,0,0,1,96.458,0h51.423a6.549,6.549,0,0,1,5.7,3.249,6.02,6.02,0,0,1-.239,6.363L65.633,140.386l62,92.43h0l25.71,38.34a6.015,6.015,0,0,1,.239,6.36A6.544,6.544,0,0,1,147.882,280.765Zm-47.875-12.472H135.97L52.436,143.756a6.016,6.016,0,0,1,0-6.747L135.97,12.474H100.006L14.232,140.384Z" transform="translate(0)"/></g><g transform="translate(89.97)"><g transform="translate(102.809)"><path d="M51.408,0l89.963,134.156H89.963L0,0Z" transform="translate(6.5 6.238)" fill="#71f09f"/><path d="M147.871,146.631H96.465A6.573,6.573,0,0,1,91,143.768L1.033,9.612A6.027,6.027,0,0,1,.793,3.249,6.554,6.554,0,0,1,6.5,0H57.908a6.569,6.569,0,0,1,5.466,2.863L153.337,137.02a6.02,6.02,0,0,1,.239,6.363A6.546,6.546,0,0,1,147.871,146.631ZM100.013,134.16H135.96L54.358,12.475H18.412Z" transform="translate(0)"/></g><g transform="translate(51.402)"><path d="M51.408,0l89.963,134.156H89.963L0,0Z" transform="translate(6.5 6.238)" fill="#71f09f"/><path d="M147.873,146.631H96.463a6.573,6.573,0,0,1-5.469-2.863L1.034,9.612A6.02,6.02,0,0,1,.795,3.249,6.546,6.546,0,0,1,6.5,0H57.909a6.569,6.569,0,0,1,5.466,2.863L153.338,137.02a6.02,6.02,0,0,1,.239,6.363A6.55,6.55,0,0,1,147.873,146.631ZM100.011,134.16h35.951L54.359,12.475H18.411Z" transform="translate(0)"/></g><g transform="translate(64.247 114.981)"><path d="M25.711,19.15v.02L12.845,38.339,0,19.17,12.865,0Z" transform="translate(6.5 6.236)" fill="#71f09f"/><path d="M19.346,50.812h0a6.581,6.581,0,0,1-5.466-2.866L1.033,28.778a6.016,6.016,0,0,1,0-6.746L13.9,2.863A6.572,6.572,0,0,1,19.365,0h0a6.572,6.572,0,0,1,5.466,2.863l12.844,19.15a6.046,6.046,0,0,1,1.034,3.372v.021a6.029,6.029,0,0,1-1.037,3.374L24.812,47.949A6.573,6.573,0,0,1,19.346,50.812Zm-5.115-25.4,5.118,7.641L24.488,25.4l-5.123-7.636Z" transform="translate(0)"/></g><g transform="translate(0 0.003)"><path d="M141.359,134.127v.02h-51.4v-.02l-12.846-19.15L51.4,76.658,25.711,38.319,0,0H51.4L77.112,38.319,102.8,76.658l38.536,57.469Z" transform="translate(6.5 6.237)" fill="#71f09f"/><path d="M147.86,146.621h-51.4a6.547,6.547,0,0,1-5.678-3.2L1.034,9.612A6.027,6.027,0,0,1,.792,3.249,6.554,6.554,0,0,1,6.5,0H57.9a6.568,6.568,0,0,1,5.466,2.863L153.1,136.686a6.039,6.039,0,0,1,1.257,3.677v.021A6.373,6.373,0,0,1,147.86,146.621Zm-47.84-12.472h35.923L54.354,12.474H18.414Z" transform="translate(0)"/></g></g></g><g transform="translate(732.547 536.583)"><g transform="translate(89.97 134.131)"><g transform="translate(102.809 0.005)"><path d="M51.408,134.156,141.371,0H89.963L0,134.156Z" transform="translate(6.5 6.237)" fill="#71f09f"/><path d="M57.908,146.629H6.5A6.549,6.549,0,0,1,.793,143.38a6.027,6.027,0,0,1,.239-6.363L91,2.863A6.579,6.579,0,0,1,96.465,0h51.407a6.543,6.543,0,0,1,5.705,3.252,6.015,6.015,0,0,1-.239,6.36L63.374,143.766A6.569,6.569,0,0,1,57.908,146.629Zm-39.5-12.472H54.358l81.6-121.682H100.013Z" transform="translate(0)"/></g><g transform="translate(51.401 0.005)"><path d="M51.408,134.156,141.371,0H89.963L0,134.156Z" transform="translate(6.5 6.237)" fill="#71f09f"/><path d="M57.909,146.629H6.5A6.541,6.541,0,0,1,.795,143.38a6.02,6.02,0,0,1,.239-6.363L91,2.863A6.572,6.572,0,0,1,96.463,0h51.409a6.547,6.547,0,0,1,5.705,3.252,6.016,6.016,0,0,1-.239,6.36L63.375,143.766A6.569,6.569,0,0,1,57.909,146.629Zm-39.5-12.472H54.359l81.6-121.682H100.011Z" transform="translate(0)"/></g><path d="M141.359,0V.02h-.02L102.8,57.509,77.092,95.847,51.4,134.166H0L25.69,95.847,51.4,57.509l25.691-38.32L89.958.02V0Z" transform="translate(6.5 6.235)" fill="#71f09f"/><path d="M57.9,146.637H6.5a6.546,6.546,0,0,1-5.7-3.249,6.022,6.022,0,0,1,.236-6.36L90.87,3.061A6.546,6.546,0,0,1,96.458,0h51.4a6.373,6.373,0,0,1,6.5,6.235v.021a6.044,6.044,0,0,1-1.3,3.745L63.37,143.771A6.568,6.568,0,0,1,57.9,146.637ZM18.408,134.165H54.354L135.943,12.472H100.017Z" transform="translate(0)"/></g><path d="M89.963,0,0,134.156,89.963,268.292h51.408L51.408,134.156,141.371,0Z" transform="translate(6.5 6.237)" fill="#71f09f"/><path d="M147.871,280.765H96.465A6.574,6.574,0,0,1,91,277.9L1.033,143.769a6.03,6.03,0,0,1,0-6.749L91,2.863A6.573,6.573,0,0,1,96.465,0h51.407a6.546,6.546,0,0,1,5.705,3.249,6.015,6.015,0,0,1-.239,6.362l-87.7,130.782,87.7,130.759a6.015,6.015,0,0,1,.239,6.363A6.541,6.541,0,0,1,147.871,280.765ZM100.01,268.293h35.95L52.442,143.769a6.021,6.021,0,0,1,0-6.749L135.96,12.472H100.012L14.23,140.394Z" transform="translate(0)"/><g transform="translate(51.407)"><path d="M89.963,0,0,134.156,89.963,268.292h51.408L51.408,134.156,141.371,0Z" transform="translate(6.501 6.237)" fill="#71f09f"/><path d="M147.873,280.765H96.464A6.568,6.568,0,0,1,91,277.9L1.035,143.769a6.021,6.021,0,0,1,0-6.749L91,2.863A6.573,6.573,0,0,1,96.464,0h51.409a6.549,6.549,0,0,1,5.7,3.249,6.02,6.02,0,0,1-.239,6.362l-87.7,130.782,87.7,130.759a6.02,6.02,0,0,1,.239,6.363A6.544,6.544,0,0,1,147.873,280.765Zm-47.862-12.472H135.96L52.441,143.769a6.03,6.03,0,0,1,0-6.749L135.962,12.472H100.012L14.23,140.394Z" transform="translate(0)"/></g><g transform="translate(102.814 0.003)"><path d="M115.668,229.954l25.711,38.339H89.957L64.247,229.974,38.556,191.635,0,134.146,38.556,76.658,64.266,38.319,89.957,0h51.422L115.668,38.339,89.957,76.658,64.266,114.977,51.4,134.146l12.845,19.169Z" transform="translate(6.501 6.236)" fill="#71f09f"/><path d="M147.882,280.765H96.458a6.571,6.571,0,0,1-5.466-2.863L1.035,143.758a6.019,6.019,0,0,1,0-6.749L90.99,2.865A6.568,6.568,0,0,1,96.458,0h51.423a6.55,6.55,0,0,1,5.7,3.249,6.02,6.02,0,0,1-.239,6.363L65.633,140.386l62,92.43h0l25.71,38.337a6.02,6.02,0,0,1,.239,6.363A6.549,6.549,0,0,1,147.882,280.765Zm-47.875-12.472H135.97L52.436,143.755a6.016,6.016,0,0,1,0-6.746L135.97,12.472H100.006L14.232,140.384Z" transform="translate(0)"/></g><g transform="translate(89.97)"><g transform="translate(102.809)"><path d="M51.408,0l89.963,134.156H89.963L0,0Z" transform="translate(6.5 6.237)" fill="#71f09f"/><path d="M147.871,146.631H96.465A6.579,6.579,0,0,1,91,143.769L1.033,9.612A6.026,6.026,0,0,1,.793,3.249,6.554,6.554,0,0,1,6.5,0H57.908a6.569,6.569,0,0,1,5.466,2.863L153.337,137.02a6.015,6.015,0,0,1,.239,6.36A6.542,6.542,0,0,1,147.871,146.631Zm-47.859-12.474H135.96L54.358,12.472H18.412Z" transform="translate(0)"/></g><g transform="translate(51.402)"><path d="M51.408,0l89.963,134.156H89.963L0,0Z" transform="translate(6.5 6.237)" fill="#71f09f"/><path d="M147.873,146.631H96.463a6.58,6.58,0,0,1-5.469-2.863L1.034,9.612A6.02,6.02,0,0,1,.795,3.249,6.546,6.546,0,0,1,6.5,0H57.909a6.569,6.569,0,0,1,5.466,2.863L153.338,137.02a6.016,6.016,0,0,1,.239,6.36A6.546,6.546,0,0,1,147.873,146.631Zm-47.862-12.474h35.951L54.359,12.472H18.411Z" transform="translate(0)"/></g><g transform="translate(64.247 114.98)"><path d="M25.711,19.15v.02L12.845,38.339,0,19.169,12.865,0Z" transform="translate(6.5 6.235)" fill="#71f09f"/><path d="M19.346,50.809h0a6.584,6.584,0,0,1-5.466-2.863L1.033,28.778a6.016,6.016,0,0,1,0-6.746L13.9,2.86A6.576,6.576,0,0,1,19.365,0h0a6.576,6.576,0,0,1,5.466,2.86L37.678,22.01a6.06,6.06,0,0,1,1.034,3.374v.021a6.034,6.034,0,0,1-1.037,3.374L24.812,47.949A6.575,6.575,0,0,1,19.346,50.809Zm-5.115-25.4,5.118,7.641L24.488,25.4l-5.123-7.639Z" transform="translate(0)"/></g><g transform="translate(0 0.003)"><path d="M141.359,134.127v.02h-51.4v-.02l-12.846-19.15L51.4,76.658,25.711,38.319,0,0H51.4L77.112,38.319,102.8,76.658l38.536,57.469Z" transform="translate(6.5 6.236)" fill="#71f09f"/><path d="M147.86,146.621h-51.4a6.547,6.547,0,0,1-5.678-3.2L1.034,9.612A6.027,6.027,0,0,1,.792,3.249,6.555,6.555,0,0,1,6.5,0H57.9a6.567,6.567,0,0,1,5.466,2.863L153.1,136.686a6.039,6.039,0,0,1,1.257,3.677v.021A6.375,6.375,0,0,1,147.86,146.621Zm-47.84-12.475h35.923L54.354,12.472H18.414Z" transform="translate(0)"/></g></g></g><g transform="translate(732.547 804.876)"><g transform="translate(89.97 134.128)"><g transform="translate(102.809 0.008)"><path d="M51.408,134.156,141.371,0H89.963L0,134.156Z" transform="translate(6.5 6.236)" fill="#71f09f"/><path d="M57.908,146.628H6.5a6.554,6.554,0,0,1-5.708-3.249,6.026,6.026,0,0,1,.239-6.362L91,2.863A6.573,6.573,0,0,1,96.465,0h51.407a6.545,6.545,0,0,1,5.705,3.249,6.02,6.02,0,0,1-.239,6.363L63.374,143.765A6.568,6.568,0,0,1,57.908,146.628Zm-39.5-12.474H54.358l81.6-121.682H100.013Z" transform="translate(0)"/></g><g transform="translate(51.401 0.008)"><path d="M51.408,134.156,141.371,0H89.963L0,134.156Z" transform="translate(6.5 6.236)" fill="#71f09f"/><path d="M57.909,146.628H6.5a6.546,6.546,0,0,1-5.705-3.249,6.02,6.02,0,0,1,.239-6.362L91,2.863A6.565,6.565,0,0,1,96.463,0h51.409a6.549,6.549,0,0,1,5.705,3.249,6.02,6.02,0,0,1-.239,6.363L63.375,143.765A6.568,6.568,0,0,1,57.909,146.628Zm-39.5-12.474H54.359l81.6-121.682H100.011Z" transform="translate(0)"/></g><path d="M141.359,0V.02h-.02L102.8,57.509,77.092,95.847,51.4,134.166H0L25.69,95.847,51.4,57.509,77.092,19.19,89.958.02V0Z" transform="translate(6.5 6.236)" fill="#71f09f"/><path d="M57.9,146.639H6.5A6.546,6.546,0,0,1,.8,143.39a6.021,6.021,0,0,1,.236-6.36L90.87,3.064A6.549,6.549,0,0,1,96.458,0h51.4a6.375,6.375,0,0,1,6.5,6.238v.02a6.031,6.031,0,0,1-1.3,3.743L63.37,143.773A6.569,6.569,0,0,1,57.9,146.639ZM18.408,134.164H54.354l81.589-121.69H100.017Z" transform="translate(0)"/></g><g transform="translate(0 0)"><path d="M89.963,0,0,134.156,89.963,268.292h51.408L51.408,134.156,141.371,0Z" transform="translate(6.5 6.236)" fill="#71f09f"/><path d="M147.871,280.765H96.465A6.573,6.573,0,0,1,91,277.9L1.033,143.768a6.029,6.029,0,0,1,0-6.749L91,2.861A6.577,6.577,0,0,1,96.465,0h51.407a6.541,6.541,0,0,1,5.705,3.249,6.01,6.01,0,0,1-.239,6.36L65.64,140.394l87.7,130.759a6.014,6.014,0,0,1,.239,6.362A6.546,6.546,0,0,1,147.871,280.765ZM100.01,268.29h35.95L52.442,143.768a6.02,6.02,0,0,1,0-6.749L135.96,12.472H100.012L14.23,140.394Z" transform="translate(0)"/><g transform="translate(51.407)"><path d="M89.963,0,0,134.156,89.963,268.292h51.408L51.408,134.156,141.371,0Z" transform="translate(6.501 6.236)" fill="#71f09f"/><path d="M147.873,280.765H96.464A6.568,6.568,0,0,1,91,277.9L1.035,143.768a6.02,6.02,0,0,1,0-6.749L91,2.861A6.577,6.577,0,0,1,96.464,0h51.409a6.544,6.544,0,0,1,5.7,3.249,6.016,6.016,0,0,1-.239,6.36l-87.7,130.785,87.7,130.759a6.02,6.02,0,0,1,.239,6.362A6.549,6.549,0,0,1,147.873,280.765ZM100.012,268.29H135.96L52.441,143.768a6.029,6.029,0,0,1,0-6.749L135.962,12.472H100.012L14.233,140.394Z" transform="translate(0)"/></g><g transform="translate(102.814 0.003)"><path d="M115.668,229.954l25.711,38.339H89.957L64.247,229.974,38.556,191.635,0,134.147,38.556,76.658,64.266,38.32,89.957,0h51.422L115.668,38.339,89.957,76.658,64.266,114.977,51.4,134.147l12.845,19.17Z" transform="translate(6.501 6.235)" fill="#71f09f"/><path d="M147.882,280.765H96.458a6.572,6.572,0,0,1-5.466-2.863L1.035,143.758a6.02,6.02,0,0,1,0-6.749L90.99,2.863A6.573,6.573,0,0,1,96.458,0h51.423a6.544,6.544,0,0,1,5.7,3.249,6.015,6.015,0,0,1-.239,6.36L65.633,140.387l62,92.43h0l25.71,38.337a6.02,6.02,0,0,1,.239,6.363A6.55,6.55,0,0,1,147.882,280.765ZM100.006,268.29H135.97L52.436,143.755a6.016,6.016,0,0,1,0-6.746L135.97,12.472H100.006L14.232,140.384Z" transform="translate(0)"/></g></g><g transform="translate(89.97 0)"><g transform="translate(102.809)"><path d="M51.408,0l89.963,134.156H89.963L0,0Z" transform="translate(6.5 6.236)" fill="#71f09f"/><path d="M147.871,146.629H96.465A6.577,6.577,0,0,1,91,143.768L1.033,9.609a6.022,6.022,0,0,1-.239-6.36A6.549,6.549,0,0,1,6.5,0H57.908a6.572,6.572,0,0,1,5.466,2.861L153.337,137.02a6.015,6.015,0,0,1,.239,6.36A6.541,6.541,0,0,1,147.871,146.629Zm-47.859-12.472H135.96L54.358,12.472H18.412Z" transform="translate(0)"/></g><g transform="translate(51.402)"><path d="M51.408,0l89.963,134.156H89.963L0,0Z" transform="translate(6.5 6.236)" fill="#71f09f"/><path d="M147.873,146.629H96.463a6.577,6.577,0,0,1-5.469-2.861L1.034,9.609a6.016,6.016,0,0,1-.239-6.36A6.541,6.541,0,0,1,6.5,0H57.909a6.572,6.572,0,0,1,5.466,2.861L153.338,137.02a6.016,6.016,0,0,1,.239,6.36A6.544,6.544,0,0,1,147.873,146.629Zm-47.862-12.472h35.951L54.359,12.472H18.411Z" transform="translate(0)"/></g><g transform="translate(64.247 114.978)"><path d="M25.711,19.15v.02L12.845,38.339,0,19.17,12.865,0Z" transform="translate(6.5 6.237)" fill="#71f09f"/><path d="M19.346,50.812h0a6.58,6.58,0,0,1-5.466-2.866L1.033,28.78a6.016,6.016,0,0,1,0-6.746L13.9,2.863A6.571,6.571,0,0,1,19.365,0h0a6.571,6.571,0,0,1,5.466,2.863l12.844,19.15a6.06,6.06,0,0,1,1.034,3.374v.021a6.036,6.036,0,0,1-1.037,3.375L24.812,47.949A6.572,6.572,0,0,1,19.346,50.812Zm-5.115-25.4,5.118,7.639L24.488,25.4l-5.123-7.639Z" transform="translate(0)"/></g><g transform="translate(0 0.003)"><path d="M141.359,134.126v.02h-51.4v-.02l-12.846-19.15L51.4,76.658,25.711,38.32,0,0H51.4L77.112,38.32,102.8,76.658l38.536,57.469Z" transform="translate(6.5 6.235)" fill="#71f09f"/><path d="M147.86,146.618h-51.4a6.55,6.55,0,0,1-5.678-3.194L1.034,9.609a6.022,6.022,0,0,1-.242-6.36A6.549,6.549,0,0,1,6.5,0H57.9a6.572,6.572,0,0,1,5.466,2.86L153.1,136.686a6.034,6.034,0,0,1,1.257,3.677v.021A6.373,6.373,0,0,1,147.86,146.618Zm-47.84-12.472h35.923L54.354,12.472H18.414Z" transform="translate(0)"/></g></g></g></g></g></svg>