<svg xmlns="http://www.w3.org/2000/svg" xmlns:xlink="http://www.w3.org/1999/xlink" width="59.665" height="46.837" viewBox="0 0 59.665 46.837"><defs><clipPath id="a"><rect width="59.665" height="46.837" fill="none"/></clipPath></defs><g transform="translate(0.001)"><g transform="translate(-0.001 0)"><g clip-path="url(#a)"><path d="M970.377,443.648l-3.6,5.6h-21.6l-3.6-5.6Z" transform="translate(-926.148 -442.608)" fill="#72f09f"/><path d="M964.988,448.5h-21.6a1.04,1.04,0,0,1-.875-.478l-3.6-5.6a1.04,1.04,0,0,1,.875-1.6h28.792a1.04,1.04,0,0,1,.875,1.6l-3.6,5.6A1.039,1.039,0,0,1,964.988,448.5Zm-21.028-2.08h20.46l2.261-3.518H941.7Z" transform="translate(-924.357 -440.817)"/><path d="M970.377,555.839H941.585l3.6-5.6h21.6Z" transform="translate(-926.148 -510.043)" fill="#72f09f"/><path d="M968.586,555.088H939.794a1.041,1.041,0,0,1-.875-1.6l3.6-5.6a1.04,1.04,0,0,1,.875-.478h21.6a1.039,1.039,0,0,1,.875.478l3.6,5.6a1.041,1.041,0,0,1-.875,1.6ZM941.7,553.007h24.982l-2.261-3.518h-20.46Z" transform="translate(-924.357 -508.251)"/><path d="M920.391,482.807l3.6,5.6h-7.2l-14.4-22.378,14.4-22.378h7.2l-3.6,5.6L909.6,466.027Z" transform="translate(-901.357 -442.609)" fill="#72f09f"/><path d="M922.2,487.654H915a1.041,1.041,0,0,1-.875-.477l-14.4-22.379a1.04,1.04,0,0,1,0-1.126l14.4-22.379a1.04,1.04,0,0,1,.875-.477h7.2a1.04,1.04,0,0,1,.875,1.6l-14.034,21.816,14.034,21.816a1.04,1.04,0,0,1-.875,1.6Zm-6.633-2.081H920.3l-2.57-4h0L906.931,464.8a1.04,1.04,0,0,1,0-1.126L920.3,442.9H915.57l-13.727,21.338Z" transform="translate(-899.566 -440.817)"/><path d="M965.18,475.668l-10.794,16.78h-21.6L922,475.668l10.794-16.78h21.6Z" transform="translate(-913.756 -452.25)" fill="#fff"/><path d="M952.6,491.7H931a1.04,1.04,0,0,1-.875-.478L919.33,474.44a1.041,1.041,0,0,1,0-1.126l10.794-16.78a1.039,1.039,0,0,1,.875-.477h21.6a1.041,1.041,0,0,1,.875.477l10.794,16.78a1.043,1.043,0,0,1,0,1.126l-10.794,16.779A1.042,1.042,0,0,1,952.6,491.7Zm-21.029-2.081h20.461l10.125-15.739-10.125-15.739H931.567l-10.125,15.739Z" transform="translate(-911.965 -450.459)"/><path d="M1021.956,466.027l-14.4,22.378h-7.2l3.6-5.6,10.794-16.78-10.794-16.78-3.6-5.6h7.2Z" transform="translate(-963.332 -442.608)" fill="#72f09f"/><path d="M1005.769,487.654h-7.2a1.041,1.041,0,0,1-.875-1.6l14.034-21.815L997.694,442.42a1.04,1.04,0,0,1,.875-1.6h7.2a1.041,1.041,0,0,1,.875.477l14.4,22.378a1.041,1.041,0,0,1,0,1.126l-14.4,22.378A1.042,1.042,0,0,1,1005.769,487.654Zm-5.293-2.081h4.725l13.727-21.338L1005.2,442.9h-4.725l13.365,20.775a1.042,1.042,0,0,1,0,1.126Z" transform="translate(-961.54 -440.817)"/></g></g><g transform="translate(16.468 18.473)"><path d="M944.4,491.1h2.457l3.909,5.021V491.1h2.605v9.5H951.06L947,495.39V500.6H944.4Z" transform="translate(-944.396 -491.102)"/><path d="M973.4,491.1H981v2.307h-4.967v1.615h4.492v2.185h-4.492V500.6H973.4Z" transform="translate(-962.745 -491.102)"/><path d="M998.752,493.409H995.9V491.1h8.333v2.307h-2.85V500.6h-2.633Z" transform="translate(-976.981 -491.102)"/></g></g></svg>