<svg xmlns="http://www.w3.org/2000/svg" xmlns:xlink="http://www.w3.org/1999/xlink" width="53.356" height="45.837" viewBox="0 0 53.356 45.837"><defs><clipPath id="a"><rect width="53.356" height="45.837" fill="none"/></clipPath></defs><g transform="translate(0)"><g transform="translate(0 0)" clip-path="url(#a)"><path d="M902.547,837.254l2.593,4.031h25.929l-2.593-4.031Z" transform="translate(-891.426 -836.504)" fill="#72f09f"/><path d="M929.291,840.257H903.362a.75.75,0,0,1-.631-.344l-2.593-4.031a.75.75,0,0,1,.631-1.155H926.7a.749.749,0,0,1,.63.344l2.593,4.031a.749.749,0,0,1-.63,1.155Zm-25.52-1.5h24.146l-1.629-2.531H902.143Z" transform="translate(-889.648 -834.727)"/><path d="M957.591,932.381l10.373,0-2.588,4.022L955,936.41Z" transform="translate(-928.322 -903.417)" fill="#72f09f"/><path d="M953.222,935.383a.75.75,0,0,1-.63-1.155l2.592-4.03a.75.75,0,0,1,.63-.344h0l10.373,0a.749.749,0,0,1,.63,1.155l-2.589,4.022a.749.749,0,0,1-.63.344l-10.376.006Zm3-4.03-1.627,2.53,8.593-.005,1.624-2.523Z" transform="translate(-926.544 -901.64)"/><path d="M922.621,948.5l10.37-16.125h-5.185l-7.78,12.091Z" transform="translate(-903.721 -903.417)" fill="#72f09f"/><path d="M920.842,947.477a.749.749,0,0,1-.63-.344l-2.594-4.032a.749.749,0,0,1,0-.811L925.4,930.2a.75.75,0,0,1,.63-.344h5.185a.749.749,0,0,1,.63,1.155l-10.37,16.125A.75.75,0,0,1,920.842,947.477Zm-1.7-4.782,1.7,2.647,9-13.989h-3.4Z" transform="translate(-901.943 -901.639)"/><path d="M885.062,862.933l12.964,20.155,5.186-8.061h15.557l7.779-12.094-7.779-12.09H892.84Z" transform="translate(-879.126 -846.063)" fill="#fff"/><path d="M896.248,882.06h0a.751.751,0,0,1-.63-.344l-12.964-20.155a.749.749,0,0,1,0-.811l7.779-12.089a.749.749,0,0,1,.63-.344h25.929a.75.75,0,0,1,.63.344L925.4,860.75a.75.75,0,0,1,0,.811l-7.779,12.094a.749.749,0,0,1-.63.344H901.843l-4.965,7.717A.75.75,0,0,1,896.248,882.06Zm-12.073-20.9,12.073,18.77,4.556-7.081a.75.75,0,0,1,.63-.344h15.148l7.3-11.344-7.3-11.34H891.472Z" transform="translate(-877.349 -844.286)"/><path d="M888.321,877.559l-2.593,4.033-18.15-28.216,10.371-16.122h5.186l-10.371,16.12Z" transform="translate(-866.828 -836.504)" fill="#72f09f"/><path d="M883.951,880.564a.75.75,0,0,1-.631-.344L865.17,852a.75.75,0,0,1,0-.811l10.371-16.122a.749.749,0,0,1,.63-.344h5.186a.749.749,0,0,1,.63,1.155L871.878,851.6l15.3,23.78a.75.75,0,0,1,0,.811l-2.593,4.032A.749.749,0,0,1,883.951,880.564ZM866.692,851.6l17.259,26.831,1.7-2.647L870.356,852a.749.749,0,0,1,0-.811l9.628-14.965h-3.4Z" transform="translate(-865.051 -834.727)"/><path d="M989.973,869.491l10.367-16.117-10.372-16.12h5.186l10.371,16.122L995.154,869.5Z" transform="translate(-952.919 -836.504)" fill="#72f09f"/><path d="M993.377,868.471h0l-5.181-.007a.75.75,0,0,1-.629-1.155L997.672,851.6l-10.11-15.715a.749.749,0,0,1,.63-1.155h5.186a.749.749,0,0,1,.63.344l10.372,16.122a.75.75,0,0,1,0,.811l-10.372,16.123A.749.749,0,0,1,993.377,868.471Zm-3.81-1.5,3.4,0,9.889-15.372-9.89-15.372h-3.4l9.628,14.965a.749.749,0,0,1,0,.811Z" transform="translate(-951.142 -834.727)"/></g></g></svg>