<svg xmlns="http://www.w3.org/2000/svg" xmlns:xlink="http://www.w3.org/1999/xlink" width="67.081" height="35.518" viewBox="0 0 67.081 35.518"><defs><clipPath id="a"><rect width="67.081" height="35.518" fill="none"/></clipPath></defs><g transform="translate(0)"><g transform="translate(0)" clip-path="url(#a)"><path d="M963.736,656.975l2.732,4.246h-5.46l-10.917-16.97,10.917-16.97h5.46l-2.732,4.245-8.186,12.725Z" transform="translate(-949.301 -626.492)" fill="#72f09f"/><path d="M964.729,660.272h-5.46a.788.788,0,0,1-.663-.362l-10.917-16.97a.789.789,0,0,1,0-.854l10.917-16.97a.788.788,0,0,1,.663-.362h5.46a.789.789,0,0,1,.663,1.216L954.75,642.513l10.642,16.543a.789.789,0,0,1-.663,1.216Zm-5.03-1.578h3.584l-1.949-3.03h0l-8.186-12.725a.789.789,0,0,1,0-.854l10.135-15.754H959.7l-10.41,16.182Z" transform="translate(-947.563 -624.753)"/><path d="M1016.193,656.975l2.732,4.246h-5.457l-2.732-4.246-8.185-12.725,8.185-12.725,2.732-4.245h5.457l-2.732,4.245-8.185,12.725Z" transform="translate(-985.384 -626.492)" fill="#72f09f"/><path d="M1017.186,660.272h-5.457a.788.788,0,0,1-.663-.362l-10.917-16.97a.789.789,0,0,1,0-.854l10.917-16.97a.788.788,0,0,1,.663-.362h5.457a.789.789,0,0,1,.663,1.216l-10.642,16.544,10.642,16.543a.789.789,0,0,1-.663,1.216Zm-5.027-1.578h3.581l-1.949-3.03h0l-8.185-12.725a.789.789,0,0,1,0-.854l10.135-15.754h-3.581l-10.409,16.182Z" transform="translate(-983.646 -624.753)"/><path d="M1123.827,644.25l-10.917,16.97h-5.46l2.732-4.246,8.185-12.725-8.185-12.725-2.732-4.246h5.46Z" transform="translate(-1057.535 -626.491)" fill="#72f09f"/><path d="M1111.172,660.272h-5.46a.789.789,0,0,1-.663-1.216l10.642-16.544-10.642-16.544a.789.789,0,0,1,.663-1.216h5.46a.788.788,0,0,1,.663.362l10.917,16.97a.788.788,0,0,1,0,.854l-10.917,16.971A.788.788,0,0,1,1111.172,660.272Zm-4.014-1.578h3.584l10.409-16.182-10.409-16.181h-3.584l10.135,15.754a.789.789,0,0,1,0,.854Z" transform="translate(-1055.797 -624.753)"/><path d="M1071.374,644.25l-8.182,12.725h0l-2.729,4.246H1055l2.732-4.246,8.185-12.725-8.185-12.725L1055,627.28h5.46l2.732,4.246Z" transform="translate(-1021.46 -626.491)" fill="#72f09f"/><path d="M1058.722,660.272h-5.46a.789.789,0,0,1-.663-1.216l10.642-16.544L1052.6,625.969a.789.789,0,0,1,.663-1.216h5.46a.788.788,0,0,1,.663.362l10.915,16.97a.79.79,0,0,1,0,.854l-8.182,12.725c-.012.018-.024.035-.036.052l-2.7,4.193A.788.788,0,0,1,1058.722,660.272Zm-4.014-1.578h3.583l2.5-3.883c.012-.018.024-.035.037-.052l7.875-12.246-10.407-16.181h-3.584l10.135,15.754a.79.79,0,0,1,0,.854Z" transform="translate(-1019.722 -624.753)"/><path d="M1015.637,722.4l-2.732,4.246H996.531L993.8,722.4Z" transform="translate(-979.365 -691.916)" fill="#72f09f"/><path d="M1011.168,725.7H994.794a.788.788,0,0,1-.663-.362l-2.732-4.245a.789.789,0,0,1,.663-1.216H1013.9a.789.789,0,0,1,.663,1.216l-2.732,4.245A.789.789,0,0,1,1011.168,725.7Zm-15.944-1.578h15.513l1.716-2.668H993.508Z" transform="translate(-977.627 -690.178)"/><path d="M1041.865,653.6l-8.186,12.725h-5.463L1020.03,653.6l8.186-12.725h5.463Z" transform="translate(-997.407 -635.846)" fill="#fff"/><path d="M1031.941,665.381h-5.463a.79.79,0,0,1-.663-.362l-8.186-12.725a.789.789,0,0,1,0-.854l8.186-12.724a.789.789,0,0,1,.663-.362h5.463a.789.789,0,0,1,.663.362l8.186,12.724a.788.788,0,0,1,0,.854l-8.186,12.725A.79.79,0,0,1,1031.941,665.381Zm-5.032-1.578h4.6l7.678-11.936-7.678-11.936h-4.6l-7.678,11.936Z" transform="translate(-995.669 -634.108)"/><path d="M1068.087,631.525H1046.25l2.732-4.246h16.374Z" transform="translate(-1015.441 -626.491)" fill="#72f09f"/><path d="M1066.349,630.576h-21.837a.789.789,0,0,1-.663-1.216l2.732-4.246a.789.789,0,0,1,.663-.362h16.374a.788.788,0,0,1,.663.362l2.732,4.246a.789.789,0,0,1-.664,1.216ZM1045.958,629H1064.9l-1.716-2.668h-15.513Z" transform="translate(-1013.703 -624.753)"/><path d="M1100.34,653.6l-8.186,12.725H1081.24l8.182-12.725-8.182-12.725h10.914Z" transform="translate(-1039.508 -635.846)" fill="#fff"/><path d="M1090.416,665.381H1079.5a.789.789,0,0,1-.664-1.216l7.908-12.3-7.908-12.3a.789.789,0,0,1,.664-1.216h10.914a.789.789,0,0,1,.663.362l8.186,12.724a.789.789,0,0,1,0,.854l-8.186,12.725A.79.79,0,0,1,1090.416,665.381Zm-9.469-1.578h9.038l7.678-11.936-7.678-11.936h-9.038l7.4,11.509a.789.789,0,0,1,0,.854Z" transform="translate(-1037.77 -634.108)"/><path d="M1086.135,722.4l-2.731,4.246H1072.49l2.728-4.246Z" transform="translate(-1033.49 -691.916)" fill="#72f09f"/><path d="M1081.666,725.7h-10.914a.789.789,0,0,1-.664-1.215l2.729-4.246a.789.789,0,0,1,.664-.362H1084.4a.789.789,0,0,1,.663,1.216l-2.732,4.245A.788.788,0,0,1,1081.666,725.7Zm-9.469-1.578h9.039l1.716-2.668h-9.041Z" transform="translate(-1031.751 -690.178)"/><path d="M978.5,653.6l8.186,12.725H975.766L967.58,653.6l8.186-12.725h10.917Z" transform="translate(-961.331 -635.846)" fill="#fff"/><path d="M984.945,665.381H974.027a.79.79,0,0,1-.663-.362l-8.186-12.725a.789.789,0,0,1,0-.854l8.186-12.724a.789.789,0,0,1,.663-.362h10.917a.789.789,0,0,1,.663,1.216l-7.911,12.3,7.911,12.3a.789.789,0,0,1-.663,1.216ZM974.458,663.8H983.5l-7.4-11.509a.789.789,0,0,1,0-.854l7.4-11.509h-9.042l-7.678,11.936Z" transform="translate(-959.593 -634.108)"/><path d="M1007.449,627.28l-2.732,4.246H993.8l2.732-4.246Z" transform="translate(-979.365 -626.491)" fill="#72f09f"/><path d="M1002.979,630.577H992.062a.789.789,0,0,1-.663-1.216l2.732-4.246a.788.788,0,0,1,.663-.362h10.917a.789.789,0,0,1,.663,1.216l-2.732,4.246A.789.789,0,0,1,1002.979,630.577ZM993.508,629h9.041l1.716-2.668h-9.041Z" transform="translate(-977.627 -624.753)"/></g></g></svg>