<svg xmlns="http://www.w3.org/2000/svg" width="13.739" height="13.739" viewBox="0 0 13.739 13.739">
  <g id="Icon_feather-clock" data-name="Icon feather-clock" transform="translate(-1.5 -1.5)">
    <path id="Path_15" data-name="Path 15" d="M8.37,1.5a6.871,6.871,0,0,1,2.674,13.2A6.871,6.871,0,0,1,5.7,2.04,6.827,6.827,0,0,1,8.37,1.5Zm0,12.49A5.621,5.621,0,1,0,4.4,12.344,5.584,5.584,0,0,0,8.37,13.99Z"/>
    <path id="Path_16" data-name="Path 16" d="M19.622,13.745a.622.622,0,0,1-.279-.066l-2.5-1.249a.625.625,0,0,1-.345-.559V8.125a.625.625,0,0,1,1.249,0v3.361L19.9,12.562a.625.625,0,0,1-.28,1.183Z" transform="translate(-8.755 -3.502)"/>
  </g>
</svg>
