<svg xmlns="http://www.w3.org/2000/svg" xmlns:xlink="http://www.w3.org/1999/xlink" width="43.292" height="51.371" viewBox="0 0 43.292 51.371"><defs><clipPath id="a"><rect width="43.292" height="51.371" fill="none"/></clipPath></defs><g transform="translate(-0.001)"><g transform="translate(0.001 0)" clip-path="url(#a)"><path d="M794.916,667.013V683.6l-8.6,5.531-8.6-5.531V667.013l8.6-5.53Z" transform="translate(-752.422 -646.858)" fill="#72f09f"/><path d="M784.4,688.014a.8.8,0,0,1-.432-.127l-8.6-5.53a.8.8,0,0,1-.367-.672V665.093a.8.8,0,0,1,.367-.672l8.6-5.53a.8.8,0,0,1,.865,0l8.6,5.53a.8.8,0,0,1,.367.672v16.591a.8.8,0,0,1-.367.672l-8.6,5.53A.8.8,0,0,1,784.4,688.014Zm-7.8-6.766,7.8,5.016,7.8-5.016V665.53l-7.8-5.016-7.8,5.016Z" transform="translate(-750.503 -644.939)"/><path d="M709.021,680.287v14.1l-7.307,4.7-7.307-4.7v-14.1l7.307-4.7Z" transform="translate(-693.608 -656.814)" fill="#72f09f"/><path d="M699.8,697.97a.8.8,0,0,1-.432-.127l-7.307-4.7a.8.8,0,0,1-.367-.673v-14.1a.8.8,0,0,1,.367-.672l7.307-4.7a.8.8,0,0,1,.865,0l7.307,4.7a.8.8,0,0,1,.367.672v14.1a.8.8,0,0,1-.367.673l-7.307,4.7A.8.8,0,0,1,699.8,697.97Zm-6.508-5.936,6.508,4.187,6.508-4.187V678.8l-6.508-4.187-6.508,4.187Z" transform="translate(-691.689 -654.895)"/><path d="M751.073,638.8v16.591l-8.6,5.531-8.6-5.531V638.8l8.6-5.53Z" transform="translate(-721.473 -626.944)" fill="#fff"/><path d="M740.558,659.805a.8.8,0,0,1-.433-.127l-8.6-5.531a.8.8,0,0,1-.367-.672V636.885a.8.8,0,0,1,.367-.672l8.6-5.53a.8.8,0,0,1,.865,0l8.6,5.53a.8.8,0,0,1,.367.672v16.591a.8.8,0,0,1-.367.672l-8.6,5.531A.8.8,0,0,1,740.558,659.805Zm-7.8-6.766,7.8,5.016,7.8-5.016V637.321l-7.8-5.016-7.8,5.016Z" transform="translate(-719.554 -625.025)"/><path d="M745.045,628.293,732.152,620l-12.9,8.3v-5.53l12.9-8.3,12.893,8.3Z" transform="translate(-711.149 -613.668)" fill="#72f09f"/><path d="M743.126,627.172a.8.8,0,0,1-.433-.127l-12.46-8.018-12.465,8.018a.8.8,0,0,1-1.232-.673v-5.53a.8.8,0,0,1,.367-.672l12.9-8.3a.8.8,0,0,1,.865,0l12.893,8.3a.8.8,0,0,1,.367.672v5.53a.8.8,0,0,1-.8.8Zm-24.991-5.893v3.63l11.665-7.5a.8.8,0,0,1,.865,0l11.661,7.5v-3.63L730.233,613.5Z" transform="translate(-709.23 -611.749)"/><path d="M745.045,699.093l-12.893,8.3-12.9-8.3v5.53l12.9,8.3,12.893-8.3Z" transform="translate(-711.149 -673.408)" fill="#72f09f"/><path d="M730.233,711.8a.8.8,0,0,1-.432-.127l-12.9-8.3a.8.8,0,0,1-.367-.673v-5.53a.8.8,0,0,1,1.232-.672l12.465,8.017,12.46-8.017a.8.8,0,0,1,1.232.672v5.53a.8.8,0,0,1-.367.673l-12.893,8.3A.8.8,0,0,1,730.233,711.8Zm-12.1-9.531,12.1,7.781,12.094-7.781V698.64l-11.661,7.5a.8.8,0,0,1-.865,0l-11.665-7.5Z" transform="translate(-709.23 -671.49)"/><path d="M719.255,665.9l4.3,2.765V652.079l-4.3,2.765Z" transform="translate(-711.149 -640.22)" fill="#72f09f"/><path d="M721.638,667.55a.8.8,0,0,1-.432-.127l-4.3-2.765a.8.8,0,0,1-.367-.672V652.925a.8.8,0,0,1,.367-.672l4.3-2.765a.8.8,0,0,1,1.232.672v16.591a.8.8,0,0,1-.8.8Zm-3.5-4,2.7,1.737V651.624l-2.7,1.737Z" transform="translate(-709.231 -638.301)"/><path d="M796.646,665.9l-4.3,2.765V652.079l4.3,2.765Z" transform="translate(-762.745 -640.22)" fill="#72f09f"/><path d="M790.427,667.55a.8.8,0,0,1-.8-.8V650.16a.8.8,0,0,1,1.231-.672l4.3,2.765a.8.8,0,0,1,.367.672v11.061a.8.8,0,0,1-.367.672l-4.3,2.765A.8.8,0,0,1,790.427,667.55Zm.8-15.926v13.663l2.7-1.737V653.362Zm3.5,12.362h0Z" transform="translate(-760.827 -638.301)"/><path d="M761.194,756.05a.8.8,0,0,1-.8-.8V744.19a.8.8,0,0,1,1.6,0v11.061A.8.8,0,0,1,761.194,756.05Z" transform="translate(-740.191 -704.679)"/><path d="M805.036,762.687a.8.8,0,0,1-.8-.8v-8.3a.8.8,0,0,1,1.6,0v8.3A.8.8,0,0,1,805.036,762.687Z" transform="translate(-771.14 -711.317)"/><path d="M717.337,762.687a.8.8,0,0,1-.8-.8v-8.3a.8.8,0,1,1,1.6,0v8.3A.8.8,0,0,1,717.337,762.687Z" transform="translate(-709.231 -711.317)"/></g></g></svg>